<svg width="24" height="24" viewBox="0 0 24 24" fill="none" xmlns="http://www.w3.org/2000/svg">
<path fill-rule="evenodd" clip-rule="evenodd" d="M2.99984 5C2.99984 3.34315 4.34298 2 5.99984 2C7.65669 2 8.99984 3.34315 8.99984 5C8.99984 6.65685 7.65669 8 5.99984 8C4.34298 8 2.99984 6.65685 2.99984 5ZM5.99984 4C5.44755 4 4.99984 4.44772 4.99984 5C4.99984 5.55228 5.44755 6 5.99984 6C6.55212 6 6.99984 5.55228 6.99984 5C6.99984 4.44772 6.55212 4 5.99984 4Z" fill="#A4ACA7"/>
<path fill-rule="evenodd" clip-rule="evenodd" d="M14.9998 5C14.9998 3.34315 16.343 2 17.9998 2C19.6567 2 20.9998 3.34315 20.9998 5C20.9998 6.65685 19.6567 8 17.9998 8C16.343 8 14.9998 6.65685 14.9998 5ZM17.9998 4C17.4476 4 16.9998 4.44772 16.9998 5C16.9998 5.55228 17.4476 6 17.9998 6C18.5521 6 18.9998 5.55228 18.9998 5C18.9998 4.44772 18.5521 4 17.9998 4Z" fill="#A4ACA7"/>
<path fill-rule="evenodd" clip-rule="evenodd" d="M7.99978 12C7.99978 9.79086 9.79064 8 11.9998 8C14.2089 8 15.9998 9.79086 15.9998 12C15.9998 14.2091 14.2089 16 11.9998 16C9.79064 16 7.99978 14.2091 7.99978 12ZM11.9998 10C10.8952 10 9.99978 10.8954 9.99978 12C9.99978 13.1046 10.8952 14 11.9998 14C13.1044 14 13.9998 13.1046 13.9998 12C13.9998 10.8954 13.1044 10 11.9998 10Z" fill="#A4ACA7"/>
<path d="M1.20035 11.3988C2.29333 9.94409 4.03648 9 5.99984 9H6.99984V11H5.99984C4.692 11 3.53081 11.6266 2.79933 12.6002L2.19866 13.3997L0.59967 12.1983L1.20035 11.3988Z" fill="#A4ACA7"/>
<path d="M16.9998 9H17.9998C19.9635 9 21.7068 9.94434 22.7998 11.3994L23.4003 12.199L21.8012 13.4001L21.2006 12.6006C20.4692 11.6268 19.3078 11 17.9998 11H16.9998V9Z" fill="#A4ACA7"/>
<path d="M5.4335 20.4279C6.87745 18.3578 9.27958 17 11.999 17C14.7184 17 17.1205 18.3578 18.5645 20.4279L19.1366 21.2481L17.4962 22.3923L16.9241 21.5721C15.8382 20.0152 14.0371 19 11.999 19C9.96092 19 8.15982 20.0152 7.07387 21.5721L6.50177 22.3923L4.8614 21.2481L5.4335 20.4279Z" fill="#A4ACA7"/>
</svg>
