<svg width="32" height="32" viewBox="0 0 32 32" fill="none" xmlns="http://www.w3.org/2000/svg">
<path d="M15.9412 10.6667C14.8443 10.6667 13.9193 11.4169 13.6575 12.4342L13.3251 13.7255L10.7426 13.0608L11.075 11.7695C11.6327 9.60267 13.5981 8.00008 15.9412 8.00008C18.7162 8.00008 20.9658 10.2497 20.9658 13.0247C20.9658 14.5325 20.2479 15.5436 19.4304 16.3388C19.0832 16.6766 18.6875 17.0047 18.3159 17.3128C18.2734 17.348 18.2312 17.3829 18.1895 17.4176C17.7664 17.7691 17.349 18.1221 16.9362 18.5298L15.9876 19.4667L14.1138 17.5693L15.0625 16.6324C15.5627 16.1384 16.056 15.7232 16.4854 15.3665C16.5256 15.333 16.5651 15.3002 16.6038 15.2681C16.9932 14.945 17.3044 14.6868 17.571 14.4274C18.1136 13.8996 18.2992 13.5341 18.2992 13.0247C18.2992 11.7224 17.2435 10.6667 15.9412 10.6667Z" fill="#FFD9CC"/>
<path d="M14.626 21.3334H17.306V24.0001H14.626V21.3334Z" fill="#FFD9CC"/>
<path fill-rule="evenodd" clip-rule="evenodd" d="M2.66602 2.66675H29.3327V26.6667H21.0063L15.9993 31.1174L10.9924 26.6667H2.66602V2.66675ZM5.33268 5.33341V24.0001H11.4993L12.3852 24.3369L15.9993 27.5495L19.6135 24.3369L20.4993 24.0001H26.666V5.33341H5.33268Z" fill="#FFD9CC"/>
</svg>
