<svg width="80" height="80" viewBox="0 0 80 80" fill="none" xmlns="http://www.w3.org/2000/svg">
<path fill-rule="evenodd" clip-rule="evenodd" d="M23.334 39.9999C23.334 30.7952 30.7959 23.3333 40.0007 23.3333C49.2054 23.3333 56.6673 30.7952 56.6673 39.9999C56.6673 49.2047 49.2054 56.6666 40.0007 56.6666C30.7959 56.6666 23.334 49.2047 23.334 39.9999ZM40.0007 29.9999C34.4778 29.9999 30.0007 34.4771 30.0007 39.9999C30.0007 45.5228 34.4778 49.9999 40.0007 49.9999C45.5235 49.9999 50.0006 45.5228 50.0006 39.9999C50.0006 34.4771 45.5235 29.9999 40.0007 29.9999Z" fill="#FFD9CC"/>
<path fill-rule="evenodd" clip-rule="evenodd" d="M30.9318 3.33325H49.0702L51.7989 11.5192L59.5185 7.66013L72.3441 20.4858L68.4852 28.2035L76.668 30.9317V49.07L68.4818 51.7982L72.34 59.5145L59.5141 72.3403L51.7981 68.482L49.0699 76.6665H30.9315L28.2034 68.4822L20.4884 72.3391L7.66275 59.5134L11.5206 51.7978L3.33398 49.0698V30.9311L11.5208 28.2024L7.66235 20.4855L20.4883 7.65958L28.2036 11.518L30.9318 3.33325ZM35.7369 9.99992L32.0972 20.9191L21.8043 15.7716L15.7741 21.8019L20.9213 32.0963L10.0007 35.7363V44.2642L20.9214 47.9033L15.7745 58.1971L21.805 64.2276L32.0974 59.0822L35.7366 69.9998H44.2648L47.9043 59.0813L58.1979 64.2285L64.2282 58.1981L59.0811 47.904L70.0013 44.2647V35.7364L59.085 32.0968L64.2324 21.8021L58.2018 15.7716L47.9049 20.919L44.2652 9.99992H35.7369Z" fill="#FFD9CC"/>
</svg>
