<svg width="80" height="80" viewBox="0 0 80 80" fill="none" xmlns="http://www.w3.org/2000/svg">
<path d="M39.8553 26.6666C37.1131 26.6666 34.8005 28.5421 34.1459 31.0853L33.3151 34.3134L26.8588 32.6517L27.6897 29.4236C29.084 24.0064 33.9976 19.9999 39.8553 19.9999C46.7929 19.9999 52.4169 25.6239 52.4169 32.5615C52.4169 36.3311 50.622 38.8588 48.5783 40.8468C47.7103 41.6912 46.7209 42.5114 45.7919 43.2816C45.6857 43.3696 45.5803 43.457 45.4759 43.5437C44.4184 44.4224 43.3748 45.3051 42.3429 46.3242L39.9712 48.6664L35.2867 43.923L37.6584 41.5808C38.9091 40.3456 40.1422 39.3077 41.2157 38.4159C41.3164 38.3322 41.4151 38.2503 41.5118 38.17C42.4853 37.3622 43.2632 36.7166 43.9298 36.0682C45.2862 34.7486 45.7502 33.8351 45.7502 32.5615C45.7502 29.3058 43.111 26.6666 39.8553 26.6666Z" fill="#FFD9CC"/>
<path d="M36.5672 53.3333H43.2672V59.9999H36.5672V53.3333Z" fill="#FFD9CC"/>
<path fill-rule="evenodd" clip-rule="evenodd" d="M3.33398 39.9999C3.33398 19.7495 19.7502 3.33325 40.0007 3.33325C60.2511 3.33325 76.6673 19.7495 76.6673 39.9999C76.6673 60.2504 60.2511 76.6666 40.0007 76.6666C19.7502 76.6666 3.33398 60.2504 3.33398 39.9999ZM40.0007 9.99992C23.4321 9.99992 10.0007 23.4314 10.0007 39.9999C10.0007 56.5685 23.4321 69.9999 40.0007 69.9999C56.5692 69.9999 70.0007 56.5685 70.0007 39.9999C70.0007 23.4314 56.5692 9.99992 40.0007 9.99992Z" fill="#FFD9CC"/>
</svg>
