<svg width="80" height="80" viewBox="0 0 80 80" fill="none" xmlns="http://www.w3.org/2000/svg">
<path fill-rule="evenodd" clip-rule="evenodd" d="M23.3327 19.9999C23.3327 10.7952 30.7946 3.33325 39.9993 3.33325C49.2041 3.33325 56.666 10.7952 56.666 19.9999C56.666 29.2047 49.2041 36.6666 39.9993 36.6666C30.7946 36.6666 23.3327 29.2047 23.3327 19.9999ZM39.9993 9.99992C34.4765 9.99992 29.9993 14.4771 29.9993 19.9999C29.9993 25.5228 34.4765 29.9999 39.9993 29.9999C45.5222 29.9999 49.9993 25.5228 49.9993 19.9999C49.9993 14.4771 45.5222 9.99992 39.9993 9.99992Z" fill="#FFD9CC"/>
<path d="M13.539 69.9999C15.1793 56.8455 26.4006 46.6666 39.9993 46.6666C41.4332 46.6666 42.8384 46.7794 44.207 46.9962L47.4994 47.5175L48.542 40.9329L45.2497 40.4115C43.5374 40.1404 41.7836 39.9999 39.9993 39.9999C21.5899 39.9999 6.66602 54.9238 6.66602 73.3333V76.6666H47.3022V69.9999H13.539Z" fill="#FFD9CC"/>
<path fill-rule="evenodd" clip-rule="evenodd" d="M63.3326 45.1345L65.7607 47.7162C67.538 49.6059 69.6555 50.5555 72.0828 50.5555H76.666V57.993C76.666 66.5378 71.7278 74.2521 64.3073 76.5209L63.3327 76.8189L62.358 76.5209C54.9375 74.2521 49.9993 66.5378 49.9993 57.993L49.9996 50.5555H54.5828C57.0099 50.5555 59.1272 49.6059 60.9045 47.7162L63.3326 45.1345ZM56.666 57.083L56.666 57.993C56.666 63.7084 59.6757 68.1324 63.3327 69.778C66.9896 68.1324 69.9993 63.7084 69.9993 57.993V57.0843C67.5448 56.7514 65.301 55.8287 63.3326 54.4176C61.3643 55.8287 59.1206 56.75 56.666 57.083Z" fill="#FFD9CC"/>
</svg>
