<svg width="20" height="20" viewBox="0 0 20 20" fill="none" xmlns="http://www.w3.org/2000/svg">
<g clip-path="url(#clip0_7752_74443)">
<path d="M7.4987 6.32019L9.9987 8.82019L12.4987 6.32019L13.6772 7.4987L11.1772 9.9987L13.6772 12.4987L12.4987 13.6772L9.9987 11.1772L7.4987 13.6772L6.32019 12.4987L8.82019 9.9987L6.32019 7.4987L7.4987 6.32019Z" fill="#A4ACA7"/>
<path fill-rule="evenodd" clip-rule="evenodd" d="M0.832031 9.9987C0.832031 4.93609 4.93609 0.832031 9.9987 0.832031C15.0613 0.832031 19.1654 4.93609 19.1654 9.9987C19.1654 15.0613 15.0613 19.1654 9.9987 19.1654C4.93609 19.1654 0.832031 15.0613 0.832031 9.9987ZM9.9987 2.4987C5.85656 2.4987 2.4987 5.85656 2.4987 9.9987C2.4987 14.1408 5.85656 17.4987 9.9987 17.4987C14.1408 17.4987 17.4987 14.1408 17.4987 9.9987C17.4987 5.85656 14.1408 2.4987 9.9987 2.4987Z" fill="#A4ACA7"/>
</g>
<defs>
<clipPath id="clip0_7752_74443">
<rect width="20" height="20" fill="white"/>
</clipPath>
</defs>
</svg>
