<svg width="16" height="16" viewBox="0 0 16 16" fill="none" xmlns="http://www.w3.org/2000/svg">
<path fill-rule="evenodd" clip-rule="evenodd" d="M2.66602 4.0026C2.66602 2.52984 3.85992 1.33594 5.33268 1.33594C6.80544 1.33594 7.99935 2.52984 7.99935 4.0026C7.99935 5.47536 6.80544 6.66927 5.33268 6.66927C3.85992 6.66927 2.66602 5.47536 2.66602 4.0026ZM5.33268 2.66927C4.5963 2.66927 3.99935 3.26622 3.99935 4.0026C3.99935 4.73898 4.5963 5.33594 5.33268 5.33594C6.06906 5.33594 6.66602 4.73898 6.66602 4.0026C6.66602 3.26622 6.06906 2.66927 5.33268 2.66927Z" fill="#A4ACA7"/>
<path fill-rule="evenodd" clip-rule="evenodd" d="M9.33268 5.33594C9.33268 4.23137 10.2281 3.33594 11.3327 3.33594C12.4373 3.33594 13.3327 4.23137 13.3327 5.33594C13.3327 6.44051 12.4373 7.33594 11.3327 7.33594C10.2281 7.33594 9.33268 6.44051 9.33268 5.33594ZM11.3327 4.66927C10.9645 4.66927 10.666 4.96775 10.666 5.33594C10.666 5.70413 10.9645 6.0026 11.3327 6.0026C11.7009 6.0026 11.9993 5.70413 11.9993 5.33594C11.9993 4.96775 11.7009 4.66927 11.3327 4.66927Z" fill="#A4ACA7"/>
<path fill-rule="evenodd" clip-rule="evenodd" d="M0.666016 12.0026C0.666016 9.42528 2.75535 7.33594 5.33268 7.33594C6.71702 7.33594 7.96012 7.93901 8.81411 8.89499C9.50138 8.33746 10.3781 8.0026 11.3327 8.0026C13.5418 8.0026 15.3327 9.79347 15.3327 12.0026V14.6693H0.666016V12.0026ZM9.5556 10.0143C9.84026 10.6179 9.99935 11.2923 9.99935 12.0026V13.3359H13.9993V12.0026C13.9993 10.5298 12.8054 9.33594 11.3327 9.33594C10.6502 9.33594 10.0278 9.59182 9.5556 10.0143ZM8.66602 13.3359V12.0026C8.66602 11.3612 8.48551 10.764 8.17286 10.2567C7.58496 9.30275 6.53251 8.66927 5.33268 8.66927C3.49173 8.66927 1.99935 10.1617 1.99935 12.0026V13.3359H8.66602Z" fill="#A4ACA7"/>
</svg>
