<svg width="20" height="20" viewBox="0 0 20 20" fill="none" xmlns="http://www.w3.org/2000/svg">
<g clip-path="url(#clip0_7063_99230)">
<path d="M7.50065 6.32019L10.0007 8.82019L12.5007 6.32019L13.6792 7.4987L11.1792 9.9987L13.6792 12.4987L12.5007 13.6772L10.0007 11.1772L7.50065 13.6772L6.32214 12.4987L8.82214 9.9987L6.32214 7.4987L7.50065 6.32019Z" fill="#A4ACA7"/>
<path fill-rule="evenodd" clip-rule="evenodd" d="M0.833984 9.9987C0.833984 4.93609 4.93804 0.832031 10.0007 0.832031C15.0633 0.832031 19.1673 4.93609 19.1673 9.9987C19.1673 15.0613 15.0633 19.1654 10.0007 19.1654C4.93804 19.1654 0.833984 15.0613 0.833984 9.9987ZM10.0007 2.4987C5.85851 2.4987 2.50065 5.85656 2.50065 9.9987C2.50065 14.1408 5.85851 17.4987 10.0007 17.4987C14.1428 17.4987 17.5006 14.1408 17.5006 9.9987C17.5006 5.85656 14.1428 2.4987 10.0007 2.4987Z" fill="#A4ACA7"/>
</g>
<defs>
<clipPath id="clip0_7063_99230">
<rect width="20" height="20" fill="white"/>
</clipPath>
</defs>
</svg>
