<svg width="16" height="16" viewBox="0 0 16 16" fill="none" xmlns="http://www.w3.org/2000/svg">
<path d="M5.33268 5.33203V3.33203H6.66602V5.33203H5.33268ZM5.33268 11.332V7.9987H6.66602V11.332H5.33268ZM3.99935 14.6654C3.63268 14.6654 3.31879 14.5348 3.05768 14.2737C2.79657 14.0126 2.66602 13.6987 2.66602 13.332V2.66536C2.66602 2.2987 2.79657 1.98481 3.05768 1.7237C3.31879 1.46259 3.63268 1.33203 3.99935 1.33203H11.9993C12.366 1.33203 12.6799 1.46259 12.941 1.7237C13.2021 1.98481 13.3327 2.2987 13.3327 2.66536V13.332C13.3327 13.6987 13.2021 14.0126 12.941 14.2737C12.6799 14.5348 12.366 14.6654 11.9993 14.6654H3.99935ZM3.99935 13.332H11.9993V7.33203H3.99935V13.332ZM3.99935 5.9987H11.9993V2.66536H3.99935V5.9987Z" fill="#FE480B"/>
</svg>
