<svg width="16" height="16" viewBox="0 0 16 16" fill="none" xmlns="http://www.w3.org/2000/svg">
<g clip-path="url(#clip0_7399_102790)">
<path fill-rule="evenodd" clip-rule="evenodd" d="M0.666016 7.99739C0.666016 3.94731 3.94926 0.664062 7.99935 0.664062C12.0494 0.664062 15.3327 3.94731 15.3327 7.99739C15.3327 12.0475 12.0494 15.3307 7.99935 15.3307C3.94926 15.3307 0.666016 12.0475 0.666016 7.99739ZM11.1165 5.50596C11.3879 5.75476 11.4062 6.17647 11.1575 6.44788L7.49079 10.4479C7.36451 10.5856 7.18622 10.6641 6.99935 10.6641C6.81248 10.6641 6.63419 10.5856 6.50792 10.4479L4.84125 8.6297C4.59245 8.35829 4.61079 7.93658 4.8822 7.68778C5.15362 7.43899 5.57533 7.45732 5.82412 7.72873L6.99935 9.0108L10.1746 5.54692C10.4234 5.2755 10.8451 5.25717 11.1165 5.50596Z" fill="#479F29"/>
</g>
<defs>
<clipPath id="clip0_7399_102790">
<rect width="16" height="16" fill="white"/>
</clipPath>
</defs>
</svg>
