<svg width="16" height="16" viewBox="0 0 16 16" fill="none" xmlns="http://www.w3.org/2000/svg">
<path fill-rule="evenodd" clip-rule="evenodd" d="M9.76886 2.21128C9.01503 0.805147 6.99902 0.804421 6.24418 2.21001L1.13532 11.7233C0.419786 13.0557 1.38494 14.6695 2.89731 14.6695H13.1062C14.6179 14.6695 15.5832 13.0569 14.8689 11.7245L9.76886 2.21128ZM8.66732 6.0026C8.66732 5.63441 8.36884 5.33594 8.00065 5.33594C7.63246 5.33594 7.33398 5.63441 7.33398 6.0026V8.66927C7.33398 9.03746 7.63246 9.33594 8.00065 9.33594C8.36884 9.33594 8.66732 9.03746 8.66732 8.66927V6.0026ZM8.00065 10.6693C7.63246 10.6693 7.33398 10.9677 7.33398 11.3359C7.33398 11.7041 7.63246 12.0026 8.00065 12.0026H8.00732C8.37551 12.0026 8.67398 11.7041 8.67398 11.3359C8.67398 10.9677 8.37551 10.6693 8.00732 10.6693H8.00065Z" fill="#DC2807"/>
</svg>
