<svg width="16" height="16" viewBox="0 0 16 16" fill="none" xmlns="http://www.w3.org/2000/svg">
<g clip-path="url(#clip0_7439_96854)">
<path fill-rule="evenodd" clip-rule="evenodd" d="M0.666016 8.0013C0.666016 3.95121 3.94926 0.667969 7.99935 0.667969C12.0494 0.667969 15.3327 3.95121 15.3327 8.0013C15.3327 12.0514 12.0494 15.3346 7.99935 15.3346C3.94926 15.3346 0.666016 12.0514 0.666016 8.0013ZM11.1165 5.50987C11.3879 5.75866 11.4062 6.18038 11.1575 6.45179L7.49079 10.4518C7.36451 10.5895 7.18622 10.668 6.99935 10.668C6.81248 10.668 6.63419 10.5895 6.50792 10.4518L4.84125 8.63361C4.59245 8.36219 4.61079 7.94048 4.8822 7.69169C5.15362 7.44289 5.57533 7.46123 5.82412 7.73264L6.99935 9.01471L10.1746 5.55082C10.4234 5.27941 10.8451 5.26107 11.1165 5.50987Z" fill="#479F29"/>
</g>
<defs>
<clipPath id="clip0_7439_96854">
<rect width="16" height="16" fill="white"/>
</clipPath>
</defs>
</svg>
