<svg width="24" height="24" viewBox="0 0 24 24" fill="none" xmlns="http://www.w3.org/2000/svg">
<path fill-rule="evenodd" clip-rule="evenodd" d="M14.6513 3.31692C13.5206 1.20772 10.4966 1.20663 9.36432 3.31502L1.70102 17.5849C0.627725 19.5835 2.07546 22.0043 4.34402 22.0043H19.6574C21.925 22.0043 23.3728 19.5853 22.3014 17.5868L14.6513 3.31692ZM12.999 9.00391C12.999 8.45162 12.5513 8.00391 11.999 8.00391C11.4467 8.00391 10.999 8.45162 10.999 9.00391V13.0039C10.999 13.5562 11.4467 14.0039 11.999 14.0039C12.5513 14.0039 12.999 13.5562 12.999 13.0039V9.00391ZM11.999 16.0039C11.4467 16.0039 10.999 16.4516 10.999 17.0039C10.999 17.5562 11.4467 18.0039 11.999 18.0039H12.009C12.5613 18.0039 13.009 17.5562 13.009 17.0039C13.009 16.4516 12.5613 16.0039 12.009 16.0039H11.999Z" fill="#DC2807"/>
</svg>
