<svg width="16" height="16" viewBox="0 0 16 16" fill="none" xmlns="http://www.w3.org/2000/svg">
<path fill-rule="evenodd" clip-rule="evenodd" d="M2.66602 3.9987C2.66602 2.52594 3.85992 1.33203 5.33268 1.33203C6.80544 1.33203 7.99935 2.52594 7.99935 3.9987C7.99935 5.47146 6.80544 6.66536 5.33268 6.66536C3.85992 6.66536 2.66602 5.47146 2.66602 3.9987ZM5.33268 2.66536C4.5963 2.66536 3.99935 3.26232 3.99935 3.9987C3.99935 4.73508 4.5963 5.33203 5.33268 5.33203C6.06906 5.33203 6.66602 4.73508 6.66602 3.9987C6.66602 3.26232 6.06906 2.66536 5.33268 2.66536Z" fill="#FE480B"/>
<path fill-rule="evenodd" clip-rule="evenodd" d="M9.33268 5.33203C9.33268 4.22746 10.2281 3.33203 11.3327 3.33203C12.4373 3.33203 13.3327 4.22746 13.3327 5.33203C13.3327 6.4366 12.4373 7.33203 11.3327 7.33203C10.2281 7.33203 9.33268 6.4366 9.33268 5.33203ZM11.3327 4.66536C10.9645 4.66536 10.666 4.96384 10.666 5.33203C10.666 5.70022 10.9645 5.9987 11.3327 5.9987C11.7009 5.9987 11.9993 5.70022 11.9993 5.33203C11.9993 4.96384 11.7009 4.66536 11.3327 4.66536Z" fill="#FE480B"/>
<path fill-rule="evenodd" clip-rule="evenodd" d="M0.666016 11.9987C0.666016 9.42137 2.75535 7.33203 5.33268 7.33203C6.71702 7.33203 7.96012 7.93511 8.81411 8.89109C9.50138 8.33355 10.3781 7.9987 11.3327 7.9987C13.5418 7.9987 15.3327 9.78956 15.3327 11.9987V14.6654H0.666016V11.9987ZM9.5556 10.0104C9.84026 10.614 9.99935 11.2884 9.99935 11.9987V13.332H13.9993V11.9987C13.9993 10.5259 12.8054 9.33203 11.3327 9.33203C10.6502 9.33203 10.0278 9.58791 9.5556 10.0104ZM8.66602 13.332V11.9987C8.66602 11.3573 8.48551 10.7601 8.17286 10.2528C7.58496 9.29885 6.53251 8.66536 5.33268 8.66536C3.49173 8.66536 1.99935 10.1577 1.99935 11.9987V13.332H8.66602Z" fill="#FE480B"/>
</svg>
