<svg width="16" height="16" viewBox="0 0 16 16" fill="none" xmlns="http://www.w3.org/2000/svg">
<g clip-path="url(#clip0_7442_102353)">
<path d="M5.66602 6.33464H8.33268V9.0013H5.66602V6.33464Z" fill="#A4ACA7"/>
<path d="M8.66602 10.0013V8.66797H10.006V10.0013H8.66602Z" fill="#A4ACA7"/>
<path fill-rule="evenodd" clip-rule="evenodd" d="M6.33268 0.667969H9.66601V2.0013H8.66602V2.70923C9.6397 2.83065 10.5319 3.21453 11.2695 3.78785L11.9654 3.09196L11.2584 2.38493L12.2012 1.44212L14.5582 3.79914L13.6154 4.74195L12.9082 4.03477L12.2124 4.7306C12.7859 5.46833 13.17 6.36071 13.2914 7.33463H13.9993V6.33464H15.3327V9.66797H13.9993V8.66797H13.2914C13.17 9.64185 12.786 10.5342 12.2124 11.2719L12.9083 11.9678L13.6154 11.2607L14.5582 12.2035L12.2012 14.5605L11.2584 13.6177L11.9655 12.9106L11.2696 12.2147C10.5319 12.788 9.63974 13.172 8.66602 13.2934V14.0013H9.66601V15.3346H6.33268V14.0013H7.33268V13.2934C6.35896 13.172 5.46675 12.788 4.7291 12.2147L4.0333 12.9105L4.74049 13.6177L3.79768 14.5605L1.44065 12.2035L2.38346 11.2606L3.09049 11.9677L3.78625 11.2719C3.21274 10.5342 2.82872 9.64185 2.70728 8.66797H1.99935V9.66797H0.666016V6.33464H1.99935V7.33463H2.70728C2.82872 6.36071 3.21277 5.46833 3.78632 4.7306L3.09058 4.03485L2.38346 4.74196L1.44065 3.79915L3.79768 1.44213L4.74049 2.38494L4.03339 3.09204L4.72919 3.78785C5.46682 3.21453 6.359 2.83065 7.33268 2.70923V2.0013H6.33268V0.667969ZM7.99935 4.0013C5.79021 4.0013 3.99935 5.79216 3.99935 8.0013C3.99935 10.2104 5.79021 12.0013 7.99935 12.0013C10.2085 12.0013 11.9993 10.2104 11.9993 8.0013C11.9993 5.79216 10.2085 4.0013 7.99935 4.0013Z" fill="#A4ACA7"/>
</g>
<defs>
<clipPath id="clip0_7442_102353">
<rect width="16" height="16" fill="white"/>
</clipPath>
</defs>
</svg>
