<svg width="20" height="20" viewBox="0 0 20 20" fill="none" xmlns="http://www.w3.org/2000/svg">
<path fill-rule="evenodd" clip-rule="evenodd" d="M18.5556 14.4698L17.9166 15.8359H13.3333C13.3333 17.6769 11.8409 19.1693 9.99993 19.1693C8.15898 19.1693 6.6666 17.6769 6.6666 15.8359H2.08333L1.4443 14.4698C1.44323 14.469 1.4432 14.469 1.44318 14.4691L1.44199 14.4705L1.44141 14.4712L1.45056 14.4597C1.46031 14.4472 1.47715 14.4253 1.50011 14.3939C1.54603 14.331 1.61633 14.2303 1.70309 14.0917C1.87662 13.8145 2.11578 13.3862 2.35741 12.8068C2.83983 11.6502 3.33521 9.88419 3.33327 7.50365C3.33327 7.50353 3.33327 7.50376 3.33327 7.50365L3.33323 7.48034C3.34526 3.80865 6.3254 0.835938 9.99987 0.835938C13.6739 0.835938 16.6537 3.8079 16.6665 7.47896L16.6665 7.48038M4.9999 7.48376L4.99993 7.50115C5.00212 10.1204 4.45589 12.1051 3.89565 13.4484C3.78487 13.714 3.67366 13.9543 3.56621 14.1693H16.4337C16.3262 13.9543 16.215 13.714 16.1042 13.4484C15.5442 12.1055 14.9981 10.1224 14.9999 7.5043L14.9998 7.48725L14.9998 7.48583C14.9908 4.73216 12.7557 2.5026 9.99987 2.5026C7.24472 2.5026 5.01002 4.73104 4.9999 7.48376ZM16.6665 7.48038L16.6666 7.5033C16.6646 9.88402 17.16 11.6501 17.6425 12.8068C17.8841 13.3862 18.1233 13.8145 18.2968 14.0917C18.3836 14.2302 18.4539 14.331 18.4998 14.3938C18.5228 14.4253 18.5396 14.4472 18.5494 14.4597L18.5579 14.4705L18.5572 14.4696C18.5572 14.4696 18.5567 14.469 18.5556 14.4698M8.33327 15.8359C8.33327 16.7564 9.07946 17.5026 9.99993 17.5026C10.9204 17.5026 11.6666 16.7564 11.6666 15.8359H8.33327Z" fill="#6B7971"/>
<path d="M18.5589 14.4716C18.5592 14.4721 18.5595 14.4724 18.5589 14.4716V14.4716Z" fill="#6B7971"/>
</svg>
