<svg width="16" height="16" viewBox="0 0 16 16" fill="none" xmlns="http://www.w3.org/2000/svg">
<path fill-rule="evenodd" clip-rule="evenodd" d="M9.76886 2.20738C9.01503 0.801241 6.99902 0.800515 6.24418 2.20611L1.13532 11.7194C0.419786 13.0518 1.38494 14.6656 2.89731 14.6656H13.1062C14.6179 14.6656 15.5832 13.053 14.8689 11.7206L9.76886 2.20738ZM8.66732 5.9987C8.66732 5.63051 8.36884 5.33203 8.00065 5.33203C7.63246 5.33203 7.33398 5.63051 7.33398 5.9987V8.66536C7.33398 9.03356 7.63246 9.33203 8.00065 9.33203C8.36884 9.33203 8.66732 9.03356 8.66732 8.66536V5.9987ZM8.00065 10.6654C7.63246 10.6654 7.33398 10.9638 7.33398 11.332C7.33398 11.7002 7.63246 11.9987 8.00065 11.9987H8.00732C8.37551 11.9987 8.67398 11.7002 8.67398 11.332C8.67398 10.9638 8.37551 10.6654 8.00732 10.6654H8.00065Z" fill="#F0A433"/>
</svg>
