<svg width="16" height="16" viewBox="0 0 16 16" fill="none" xmlns="http://www.w3.org/2000/svg">
<path fill-rule="evenodd" clip-rule="evenodd" d="M2.66602 4.00016C2.66602 2.5274 3.85992 1.3335 5.33268 1.3335C6.80544 1.3335 7.99935 2.5274 7.99935 4.00016C7.99935 5.47292 6.80544 6.66683 5.33268 6.66683C3.85992 6.66683 2.66602 5.47292 2.66602 4.00016ZM5.33268 2.66683C4.5963 2.66683 3.99935 3.26378 3.99935 4.00016C3.99935 4.73654 4.5963 5.3335 5.33268 5.3335C6.06906 5.3335 6.66602 4.73654 6.66602 4.00016C6.66602 3.26378 6.06906 2.66683 5.33268 2.66683Z" fill="#FE480B"/>
<path fill-rule="evenodd" clip-rule="evenodd" d="M9.33268 5.3335C9.33268 4.22893 10.2281 3.3335 11.3327 3.3335C12.4373 3.3335 13.3327 4.22893 13.3327 5.3335C13.3327 6.43807 12.4373 7.3335 11.3327 7.3335C10.2281 7.3335 9.33268 6.43807 9.33268 5.3335ZM11.3327 4.66683C10.9645 4.66683 10.666 4.96531 10.666 5.3335C10.666 5.70169 10.9645 6.00016 11.3327 6.00016C11.7009 6.00016 11.9993 5.70169 11.9993 5.3335C11.9993 4.96531 11.7009 4.66683 11.3327 4.66683Z" fill="#FE480B"/>
<path fill-rule="evenodd" clip-rule="evenodd" d="M0.666016 12.0002C0.666016 9.42283 2.75535 7.3335 5.33268 7.3335C6.71702 7.3335 7.96012 7.93657 8.81411 8.89255C9.50138 8.33502 10.3781 8.00016 11.3327 8.00016C13.5418 8.00016 15.3327 9.79102 15.3327 12.0002V14.6668H0.666016V12.0002ZM9.5556 10.0118C9.84026 10.6155 9.99935 11.2899 9.99935 12.0002V13.3335H13.9993V12.0002C13.9993 10.5274 12.8054 9.3335 11.3327 9.3335C10.6502 9.3335 10.0278 9.58938 9.5556 10.0118ZM8.66602 13.3335V12.0002C8.66602 11.3588 8.48551 10.7616 8.17286 10.2542C7.58496 9.30031 6.53251 8.66683 5.33268 8.66683C3.49173 8.66683 1.99935 10.1592 1.99935 12.0002V13.3335H8.66602Z" fill="#FE480B"/>
</svg>
