<svg width="120" height="120" viewBox="0 0 120 120" fill="none" xmlns="http://www.w3.org/2000/svg">
<path d="M57.5 61.2207C72.6878 61.2207 85 48.9085 85 33.7207C85 18.5329 72.6878 6.2207 57.5 6.2207C42.3122 6.2207 30 18.5329 30 33.7207C30 48.9085 42.3122 61.2207 57.5 61.2207Z" fill="#FFD8CB"/>
<path fill-rule="evenodd" clip-rule="evenodd" d="M100.759 68.9405L68.9386 100.761C67.4736 102.221 67.4736 104.601 68.9386 106.061C70.3986 107.526 72.7786 107.526 74.2386 106.061L106.059 74.2405C107.524 72.7805 107.524 70.4005 106.059 68.9405C104.599 67.4755 102.219 67.4755 100.759 68.9405Z" fill="#DC2807"/>
<path fill-rule="evenodd" clip-rule="evenodd" d="M87.5 61.25C73.01 61.25 61.25 73.01 61.25 87.5C61.25 101.99 73.01 113.75 87.5 113.75C101.99 113.75 113.75 101.99 113.75 87.5C113.75 73.01 101.99 61.25 87.5 61.25ZM87.5 68.75C97.85 68.75 106.25 77.15 106.25 87.5C106.25 97.85 97.85 106.25 87.5 106.25C77.15 106.25 68.75 97.85 68.75 87.5C68.75 77.15 77.15 68.75 87.5 68.75Z" fill="#DC2807"/>
<path fill-rule="evenodd" clip-rule="evenodd" d="M64.625 108.781C59.43 103.201 56.25 95.7213 56.25 87.5013C56.25 79.0863 59.585 71.4412 65.005 65.8212C62.555 65.6312 60.05 65.5312 57.5 65.5312C40.89 65.5312 26.185 69.6863 17.055 75.9113C10.09 80.6613 6.25 86.6963 6.25 93.0313V100.281C6.25 102.536 7.145 104.701 8.74 106.291C10.335 107.886 12.495 108.781 14.75 108.781H64.625Z" fill="#FFD8CB"/>
</svg>
