<svg width="20" height="20" viewBox="0 0 20 20" fill="none" xmlns="http://www.w3.org/2000/svg">
<path fill-rule="evenodd" clip-rule="evenodd" d="M18.5556 14.4669L17.9166 15.833H13.3333C13.3333 17.674 11.8409 19.1663 9.99993 19.1663C8.15898 19.1663 6.6666 17.674 6.6666 15.833H2.08333L1.4443 14.4669C1.44323 14.4661 1.4432 14.4661 1.44318 14.4662L1.44199 14.4676L1.44141 14.4683L1.45056 14.4567C1.46031 14.4443 1.47715 14.4223 1.50011 14.3909C1.54603 14.3281 1.61633 14.2273 1.70309 14.0887C1.87662 13.8115 2.11578 13.3832 2.35741 12.8039C2.83983 11.6472 3.33521 9.88126 3.33327 7.50072C3.33327 7.5006 3.33327 7.50083 3.33327 7.50072L3.33323 7.47741C3.34526 3.80572 6.3254 0.833008 9.99987 0.833008C13.6739 0.833008 16.6537 3.80497 16.6665 7.47603L16.6665 7.47745M4.9999 7.48083L4.99993 7.49822C5.00212 10.1175 4.45589 12.1022 3.89565 13.4455C3.78487 13.7111 3.67366 13.9514 3.56621 14.1663H16.4337C16.3262 13.9514 16.215 13.7111 16.1042 13.4455C15.5442 12.1026 14.9981 10.1195 14.9999 7.50137L14.9998 7.48432L14.9998 7.4829C14.9908 4.72923 12.7557 2.49967 9.99987 2.49967C7.24472 2.49967 5.01002 4.72811 4.9999 7.48083ZM16.6665 7.47745L16.6666 7.50037C16.6646 9.88109 17.16 11.6472 17.6425 12.8039C17.8841 13.3832 18.1233 13.8115 18.2968 14.0887C18.3836 14.2273 18.4539 14.3281 18.4998 14.3909C18.5228 14.4223 18.5396 14.4443 18.5494 14.4567L18.5579 14.4676L18.5572 14.4667C18.5572 14.4666 18.5567 14.4661 18.5556 14.4669M8.33327 15.833C8.33327 16.7535 9.07946 17.4997 9.99993 17.4997C10.9204 17.4997 11.6666 16.7535 11.6666 15.833H8.33327Z" fill="#CB3301"/>
<path d="M18.5589 14.4687C18.5592 14.4691 18.5595 14.4694 18.5589 14.4687V14.4687Z" fill="#CB3301"/>
</svg>
