<svg width="20" height="20" viewBox="0 0 20 20" fill="none" xmlns="http://www.w3.org/2000/svg">
<path fill-rule="evenodd" clip-rule="evenodd" d="M18.5556 14.4673L17.9166 15.8334H13.3333C13.3333 17.6743 11.8409 19.1667 9.99993 19.1667C8.15898 19.1667 6.6666 17.6743 6.6666 15.8334H2.08333L1.4443 14.4673C1.44323 14.4665 1.4432 14.4665 1.44318 14.4665L1.44199 14.4679L1.44141 14.4686L1.45056 14.4571C1.46031 14.4447 1.47715 14.4227 1.50011 14.3913C1.54603 14.3284 1.61633 14.2277 1.70309 14.0891C1.87662 13.8119 2.11578 13.3836 2.35741 12.8043C2.83983 11.6476 3.33521 9.88163 3.33327 7.50108C3.33327 7.50097 3.33327 7.5012 3.33327 7.50108L3.33323 7.47778C3.34526 3.80608 6.3254 0.833374 9.99987 0.833374C13.6739 0.833374 16.6537 3.80534 16.6665 7.4764L16.6665 7.47781M4.9999 7.4812L4.99993 7.49859C5.00212 10.1179 4.45589 12.1025 3.89565 13.4458C3.78487 13.7114 3.67366 13.9517 3.56621 14.1667H16.4337C16.3262 13.9517 16.215 13.7114 16.1042 13.4458C15.5442 12.103 14.9981 10.1198 14.9999 7.50173L14.9998 7.48468L14.9998 7.48327C14.9908 4.72959 12.7557 2.50004 9.99987 2.50004C7.24472 2.50004 5.01002 4.72848 4.9999 7.4812ZM16.6665 7.47781L16.6666 7.50074C16.6646 9.88145 17.16 11.6475 17.6425 12.8043C17.8841 13.3836 18.1233 13.8119 18.2968 14.0891C18.3836 14.2277 18.4539 14.3284 18.4998 14.3913C18.5228 14.4227 18.5396 14.4446 18.5494 14.4571L18.5579 14.4679L18.5572 14.467C18.5572 14.467 18.5567 14.4664 18.5556 14.4673M8.33327 15.8334C8.33327 16.7538 9.07946 17.5 9.99993 17.5C10.9204 17.5 11.6666 16.7538 11.6666 15.8334H8.33327Z" fill="#CB3301"/>
<path d="M18.5589 14.4691C18.5592 14.4695 18.5595 14.4698 18.5589 14.4691V14.4691Z" fill="#CB3301"/>
</svg>
