<svg width="24" height="22" viewBox="0 0 24 22" fill="none" xmlns="http://www.w3.org/2000/svg">
<path fill-rule="evenodd" clip-rule="evenodd" d="M7.99996 8C7.99996 5.79086 9.79082 4 12 4C14.2091 4 16 5.79086 16 8C16 10.2091 14.2091 12 12 12C9.79082 12 7.99996 10.2091 7.99996 8ZM12 6C10.8954 6 9.99996 6.89543 9.99996 8C9.99996 9.10457 10.8954 10 12 10C13.1045 10 14 9.10457 14 8C14 6.89543 13.1045 6 12 6Z" fill="#A4ACA7"/>
<path fill-rule="evenodd" clip-rule="evenodd" d="M3.99996 8C3.99996 3.58172 7.58169 0 12 0C16.4182 0 20 3.58172 20 8C20 10.1038 19.1879 12.0179 17.8602 13.446L23.2167 18.8025L21.618 22H2.38193L0.783203 18.8025L6.13977 13.446C4.81202 12.0179 3.99996 10.1038 3.99996 8ZM12 2C8.68626 2 5.99996 4.68629 5.99996 8C5.99996 11.3137 8.68626 14 12 14C15.3137 14 18 11.3137 18 8C18 4.68629 15.3137 2 12 2ZM7.6798 14.7344L3.21672 19.1975L3.618 20H20.3819L20.7832 19.1975L16.3201 14.7344C15.0741 15.5354 13.5913 16 12 16C10.4086 16 8.92583 15.5354 7.6798 14.7344Z" fill="#A4ACA7"/>
</svg>
