<svg width="16" height="16" viewBox="0 0 16 16" fill="none" xmlns="http://www.w3.org/2000/svg">
<g clip-path="url(#clip0_288_16428)">
<path fill-rule="evenodd" clip-rule="evenodd" d="M0.666992 7.99984C0.666992 3.94975 3.95024 0.666504 8.00032 0.666504C12.0504 0.666504 15.3337 3.94975 15.3337 7.99984C15.3337 12.0499 12.0504 15.3332 8.00032 15.3332C3.95024 15.3332 0.666992 12.0499 0.666992 7.99984ZM11.1175 5.5084C11.3889 5.7572 11.4072 6.17891 11.1584 6.45032L7.49176 10.4503C7.36549 10.5881 7.1872 10.6665 7.00033 10.6665C6.81346 10.6665 6.63517 10.5881 6.50889 10.4503L4.84223 8.63214C4.59343 8.36073 4.61177 7.93902 4.88318 7.69022C5.15459 7.44143 5.5763 7.45976 5.8251 7.73118L7.00033 9.01324L10.1756 5.54936C10.4244 5.27795 10.8461 5.25961 11.1175 5.5084Z" fill="#479F29"/>
</g>
<defs>
<clipPath id="clip0_288_16428">
<rect width="16" height="16" fill="white"/>
</clipPath>
</defs>
</svg>
