<svg width="22" height="22" viewBox="0 0 22 22" fill="none" xmlns="http://www.w3.org/2000/svg">
<path fill-rule="evenodd" clip-rule="evenodd" d="M0 11C0 4.92487 4.92487 0 11 0C17.0751 0 22 4.92487 22 11C22 17.0751 17.0751 22 11 22C4.92487 22 0 17.0751 0 11ZM15.6757 7.26285C16.0828 7.63604 16.1104 8.26861 15.7372 8.67573L10.2372 14.6757C10.0477 14.8824 9.78031 15 9.5 15C9.2197 15 8.95226 14.8824 8.76285 14.6757L6.26285 11.9485C5.88966 11.5413 5.91716 10.9088 6.32428 10.5356C6.7314 10.1624 7.36397 10.1899 7.73716 10.597L9.5 12.5201L14.2629 7.32428C14.636 6.91716 15.2686 6.88966 15.6757 7.26285Z" fill="#479F29"/>
</svg>
