<svg width="32" height="32" viewBox="0 0 32 32" fill="none" xmlns="http://www.w3.org/2000/svg">
<mask id="path-1-inside-1_5622_84208" fill="white">
<path d="M0 8C0 3.58172 3.58172 0 8 0H24C28.4183 0 32 3.58172 32 8V24C32 28.4183 28.4183 32 24 32H8C3.58172 32 0 28.4183 0 24V8Z"/>
</mask>
<path d="M0 8C0 3.58172 3.58172 0 8 0H24C28.4183 0 32 3.58172 32 8V24C32 28.4183 28.4183 32 24 32H8C3.58172 32 0 28.4183 0 24V8Z" fill="white"/>
<path d="M8 0V1H24V0V-1H8V0ZM32 8H31V24H32H33V8H32ZM24 32V31H8V32V33H24V32ZM0 24H1V8H0H-1V24H0ZM8 32V31C4.13401 31 1 27.866 1 24H0H-1C-1 28.9706 3.02944 33 8 33V32ZM32 24H31C31 27.866 27.866 31 24 31V32V33C28.9706 33 33 28.9706 33 24H32ZM24 0V1C27.866 1 31 4.13401 31 8H32H33C33 3.02944 28.9706 -1 24 -1V0ZM8 0V-1C3.02944 -1 -1 3.02944 -1 8H0H1C1 4.13401 4.13401 1 8 1V0Z" fill="#6B7971" mask="url(#path-1-inside-1_5622_84208)"/>
<path d="M19.9993 13.332H11.9993V14.6654H19.9993V13.332Z" fill="#6B7971"/>
<path d="M16.666 15.9987H11.9993V17.332H16.666V15.9987Z" fill="#6B7971"/>
<path fill-rule="evenodd" clip-rule="evenodd" d="M23.3327 9.33203H8.66602V21.332H11.9993V23.5349L15.5239 21.332H23.3327V9.33203ZM21.9993 10.6654V19.9987H15.1415L13.3327 21.1292V19.9987H9.99935V10.6654H21.9993Z" fill="#6B7971"/>
</svg>
