<svg width="16" height="16" viewBox="0 0 16 16" fill="none" xmlns="http://www.w3.org/2000/svg">
<path fill-rule="evenodd" clip-rule="evenodd" d="M9.76788 2.20884C9.01406 0.802706 6.99804 0.80198 6.2432 2.20757L1.13434 11.7208C0.418809 13.0532 1.38397 14.6671 2.89634 14.6671H13.1052C14.617 14.6671 15.5822 13.0545 14.8679 11.7221L9.76788 2.20884ZM8.66634 6.00016C8.66634 5.63197 8.36786 5.3335 7.99967 5.3335C7.63148 5.3335 7.33301 5.63197 7.33301 6.00016V8.66683C7.33301 9.03502 7.63148 9.3335 7.99967 9.3335C8.36786 9.3335 8.66634 9.03502 8.66634 8.66683V6.00016ZM7.99967 10.6668C7.63148 10.6668 7.33301 10.9653 7.33301 11.3335C7.33301 11.7017 7.63148 12.0002 7.99967 12.0002H8.00634C8.37453 12.0002 8.67301 11.7017 8.67301 11.3335C8.67301 10.9653 8.37453 10.6668 8.00634 10.6668H7.99967Z" fill="#DC2807"/>
</svg>
