<svg width="24" height="24" viewBox="0 0 24 24" fill="none" xmlns="http://www.w3.org/2000/svg">
<g clip-path="url(#clip0_6645_132862)">
<path fill-rule="evenodd" clip-rule="evenodd" d="M2.00015 0.585938L6.66966 5.25544C8.26469 4.45292 10.0792 4.00015 12.0001 4.00015C17.1113 4.00015 21.4756 7.20793 22.95 11.6875L23.0529 12.0002L22.95 12.3128C22.2434 14.4596 20.8722 16.3139 19.0767 17.6624L23.4144 22.0002L22.0002 23.4144L0.585938 2.00015L2.00015 0.585938ZM17.6452 16.231C19.1512 15.1693 20.3084 13.6978 20.9406 12.0002C19.6465 8.52567 16.1504 6.00015 12.0001 6.00015C10.6373 6.00015 9.34427 6.27273 8.1764 6.76219L9.94163 8.52742C10.5501 8.191 11.2536 8.00015 11.9994 8.00015C14.2433 8.00015 16.1433 9.74737 16.1433 12.0002C16.1433 12.777 15.9137 13.4987 15.522 14.1078L17.6452 16.231ZM14.0373 12.6231C14.1065 12.426 14.1433 12.2165 14.1433 12.0002C14.1433 10.9392 13.2281 10.0002 11.9994 10.0002C11.8176 10.0002 11.6419 10.0211 11.4746 10.0604L14.0373 12.6231Z" fill="#FE480B"/>
<path d="M4.92311 8.93289L4.31662 9.72799C3.78912 10.4195 3.36373 11.1835 3.05965 12.0001C4.35382 15.4746 7.84988 18.0002 12.0002 18.0002C12.4078 18.0002 12.809 17.9758 13.2023 17.9286L14.1951 17.8094L14.4335 19.7951L13.4406 19.9143C12.9684 19.971 12.4876 20.0002 12.0002 20.0002C6.88898 20.0002 2.52473 16.7924 1.05028 12.3128L0.947374 12.0001L1.05028 11.6875C1.4297 10.5348 2.00101 9.46602 2.72643 8.51501L3.33292 7.71992L4.92311 8.93289Z" fill="#FE480B"/>
</g>
<defs>
<clipPath id="clip0_6645_132862">
<rect width="24" height="24" fill="white"/>
</clipPath>
</defs>
</svg>
