<svg width="140" height="64" viewBox="0 0 140 64" fill="none" xmlns="http://www.w3.org/2000/svg">
<path d="M11.4191 39.3248C9.5218 39.3248 8 37.7863 8 35.8681L8 27.4567C8 25.5385 9.5218 24 11.4191 24H24.72V26.138H11.4191C10.7076 26.138 10.1345 26.7374 10.1345 27.4567V35.8681C10.1345 36.5874 10.7076 37.1669 11.4191 37.1669H21.7753C22.4867 37.1669 23.0599 36.5874 23.0599 35.8681V32.2852H14.5813V30.1272H25.1746V35.8681C25.1746 37.7863 23.6528 39.3248 21.7753 39.3248H11.4191Z" fill="#FE5720"/>
<path d="M27.5513 39.2509V30.8821C27.5513 29.2437 28.8755 27.905 30.4961 27.905H38.1446V30.0629H30.4961C30.0416 30.0629 29.6858 30.4226 29.6858 30.8821V39.2509H27.5513Z" fill="#FE5720"/>
<path d="M43.273 39.2509C41.6524 39.2509 40.3282 37.9122 40.3282 36.2738V27.905H42.4627V36.2738C42.4627 36.7333 42.8184 37.093 43.273 37.093H53.6291C54.0837 37.093 54.4395 36.7333 54.4395 36.2738V27.905H56.5739V36.2738C56.5739 37.9122 55.2498 39.2509 53.6291 39.2509H43.273Z" fill="#FE5720"/>
<path d="M58.9531 39.2549V24H61.0876V37.097H72.2541C72.7086 37.097 73.0644 36.7373 73.0644 36.2777V30.8456C73.0644 30.3861 72.7086 30.0264 72.2541 30.0264H63.212V27.8685H72.2541C73.8747 27.8685 75.1988 29.2072 75.1988 30.8456V36.2777C75.1988 37.9162 73.8747 39.2549 72.2541 39.2549H58.9531Z" fill="#FE5720"/>
<path d="M77.578 39.2549V24H91.3533C93.2308 24 94.7526 25.5385 94.7526 27.4567V28.8386C94.7526 30.7368 93.2308 32.2954 91.3533 32.2954H81.8385V30.1374H91.3533C92.0648 30.1374 92.6379 29.558 92.6379 28.8386V27.4567C92.6379 26.7374 92.0648 26.138 91.3533 26.138H79.7125V39.2549H77.578Z" fill="#FE5720"/>
<path d="M100.074 39.2255C98.4535 39.2255 97.1294 37.8868 97.1294 36.2484V34.3734C97.1294 32.7349 98.4535 31.3962 100.074 31.3962H109.129V33.5342H100.074C99.6196 33.5342 99.2638 33.9138 99.2638 34.3734V36.2484C99.2638 36.7079 99.6196 37.0676 100.074 37.0676H111.241V30.8567C111.241 30.3972 110.885 30.0375 110.43 30.0375H97.6037V27.8796H110.43C112.051 27.8796 113.375 29.2183 113.375 30.8567V39.2255H100.074Z" fill="#FE5720"/>
<path d="M118.699 39.2255C117.078 39.2255 115.754 37.8868 115.754 36.2484V30.8567C115.754 29.2183 117.078 27.8796 118.699 27.8796H132V30.0375H118.699C118.245 30.0375 117.889 30.3972 117.889 30.8567V36.2484C117.889 36.7079 118.245 37.0676 118.699 37.0676H132V39.2255H118.699Z" fill="#FE5720"/>
</svg>
