<svg width="199" height="25" viewBox="0 0 199 25" fill="none" xmlns="http://www.w3.org/2000/svg">
<path d="M5.47421 24.5198C2.4365 24.5198 0 22.0581 0 18.989L0 5.53075C0 2.46166 2.4365 0 5.47421 0H26.7698V3.42075H5.47421C4.33507 3.42075 3.41743 4.37984 3.41743 5.53075V18.989C3.41743 20.1399 4.33507 21.067 5.47421 21.067H22.0551C23.1942 21.067 24.1118 20.1399 24.1118 18.989V13.2563H10.5371V9.80358H27.4976V18.989C27.4976 22.0581 25.0611 24.5198 22.0551 24.5198H5.47421Z" fill="#FE5720"/>
<path d="M31.3029 24.4015V11.0114C31.3029 8.38991 33.423 6.24795 36.0177 6.24795H48.2635V9.70067H36.0177C35.2899 9.70067 34.7204 10.2761 34.7204 11.0114V24.4015H31.3029Z" fill="#FE5720"/>
<path d="M56.4743 24.4015C53.8796 24.4015 51.7595 22.2595 51.7595 19.638V6.24795H55.177V19.638C55.177 20.3733 55.7465 20.9488 56.4743 20.9488H73.0552C73.783 20.9488 74.3525 20.3733 74.3525 19.638V6.24795H77.77V19.638C77.77 22.2595 75.6499 24.4015 73.0552 24.4015H56.4743Z" fill="#FE5720"/>
<path d="M81.5792 24.4079V0H84.9966V20.9551H102.875C103.603 20.9551 104.172 20.3797 104.172 19.6444V10.953C104.172 10.2177 103.603 9.64228 102.875 9.64228H88.3979V6.18955H102.875C105.47 6.18955 107.59 8.33152 107.59 10.953V19.6444C107.59 22.2659 105.47 24.4079 102.875 24.4079H81.5792Z" fill="#FE5720"/>
<path d="M111.399 24.4079V0H133.454C136.46 0 138.897 2.46166 138.897 5.53075V7.74184C138.897 10.779 136.46 13.2726 133.454 13.2726H118.22V9.81987H133.454C134.593 9.81987 135.511 8.89275 135.511 7.74184V5.53075C135.511 4.37984 134.593 3.42075 133.454 3.42075H114.816V24.4079H111.399Z" fill="#FE5720"/>
<path d="M147.417 24.3609C144.822 24.3609 142.702 22.2189 142.702 19.5974V16.5974C142.702 13.9759 144.822 11.834 147.417 11.834H161.913V15.2547H147.417C146.689 15.2547 146.119 15.8621 146.119 16.5974V19.5974C146.119 20.3327 146.689 20.9081 147.417 20.9081H165.295V10.9708C165.295 10.2355 164.725 9.66002 163.997 9.66002H143.461V6.2073H163.997C166.592 6.2073 168.712 8.34926 168.712 10.9708V24.3609H147.417Z" fill="#FE5720"/>
<path d="M177.236 24.3609C174.642 24.3609 172.521 22.2189 172.521 19.5974V10.9708C172.521 8.34926 174.642 6.2073 177.236 6.2073H198.532V9.66002H177.236C176.508 9.66002 175.939 10.2355 175.939 10.9708V19.5974C175.939 20.3327 176.508 20.9081 177.236 20.9081H198.532V24.3609H177.236Z" fill="#FE5720"/>
</svg>
