<svg width="20" height="24" viewBox="0 0 20 24" fill="none" xmlns="http://www.w3.org/2000/svg">
<path d="M10 0.855469L13.3598 2.72202L12.3885 4.47034L10 3.14339L7.61149 4.47034L6.6402 2.72202L10 0.855469Z" fill="#A4ACA7"/>
<path d="M4.3598 6.27683L3.15293 6.94732L4.33941 7.53323L3.45385 9.32649L2 8.60854V9.99943H0V6.41102L3.38851 4.52852L4.3598 6.27683Z" fill="#A4ACA7"/>
<path d="M16.6115 4.52852L20 6.41102V9.99943H18V8.60854L16.5462 9.32649L15.6606 7.53323L16.8471 6.94732L15.6402 6.27683L16.6115 4.52852Z" fill="#A4ACA7"/>
<path d="M7.54615 9.11681L10 10.3286L12.4538 9.11681L13.3394 10.9101L11 12.0653V13.9994H9V12.0653L6.66059 10.9101L7.54615 9.11681Z" fill="#A4ACA7"/>
<path d="M2 13.9994V16.411L4.3598 17.722L3.38851 19.4703L0 17.5878V13.9994H2Z" fill="#A4ACA7"/>
<path d="M20 13.9994V17.5878L16.6115 19.4703L15.6402 17.722L18 16.411V13.9994H20Z" fill="#A4ACA7"/>
<path d="M11 17.9994V20.2999L12.3885 19.5285L13.3598 21.2768L10 23.1434L6.6402 21.2768L7.61149 19.5285L9 20.2999V17.9994H11Z" fill="#A4ACA7"/>
</svg>
