<svg width="22" height="21" viewBox="0 0 22 21" fill="none" xmlns="http://www.w3.org/2000/svg">
<path fill-rule="evenodd" clip-rule="evenodd" d="M10.9929 1.71691C8.65298 -0.327979 5.19252 -0.746436 2.50521 1.54965C-0.401577 4.03328 -0.823907 8.21609 1.47471 11.1739C2.51793 12.5163 4.76496 14.6828 6.68698 16.4631C7.66084 17.3651 8.57226 18.1869 9.23999 18.7831C9.57398 19.0814 9.8473 19.3234 10.0373 19.491C10.1324 19.5748 10.2066 19.6401 10.2572 19.6845L10.3339 19.7517L10.3349 19.7526C10.335 19.7527 10.3353 19.753 10.9933 18.9999L10.3349 19.7526L10.9933 20.3279L11.6512 19.753L10.9933 18.9999C11.6512 19.753 11.6512 19.753 11.6512 19.753L11.7294 19.6845C11.78 19.6401 11.8542 19.5748 11.9492 19.491C12.1392 19.3234 12.4126 19.0814 12.7465 18.7831C13.4143 18.1869 14.3257 17.3651 15.2996 16.4631C17.2216 14.6828 19.4686 12.5163 20.5118 11.1739C22.8016 8.22745 22.4445 4.01238 19.4709 1.54088C16.7537 -0.717541 13.3301 -0.328758 10.9929 1.71691ZM10.9933 17.6663C10.8675 17.5547 10.7264 17.4291 10.572 17.2913C9.91047 16.7006 9.0085 15.8872 8.04603 14.9958C6.09537 13.189 3.97793 11.1357 3.05392 9.9467C1.41807 7.84171 1.7011 4.86733 3.80441 3.07021C5.818 1.34975 8.52828 1.79238 10.2333 3.78575L10.9933 4.67416L11.7532 3.78575C13.4507 1.80119 16.1256 1.36105 18.1925 3.07898C20.3152 4.84319 20.5773 7.83034 18.9326 9.9467C18.0086 11.1357 15.8912 13.189 13.9405 14.9958C12.978 15.8872 12.0761 16.7006 11.4145 17.2913C11.2602 17.4291 11.119 17.5547 10.9933 17.6663Z" fill="#A4ACA7"/>
</svg>
