<svg width="22" height="22" viewBox="0 0 22 22" fill="none" xmlns="http://www.w3.org/2000/svg">
<path d="M7.5 8.5H11.5V12.5H7.5V8.5Z" fill="#A4ACA7"/>
<path d="M12 14V12H14.01V14H12Z" fill="#A4ACA7"/>
<path fill-rule="evenodd" clip-rule="evenodd" d="M8.5 0H13.5V2H12V3.06189C13.4605 3.24402 14.7988 3.81985 15.9052 4.67982L16.9491 3.63599L15.8885 2.57544L17.3027 1.16123L20.8383 4.69676L19.4241 6.11097L18.3633 5.0502L17.3195 6.09394C18.1799 7.20055 18.7559 8.53911 18.9381 10H20V8.5H22V13.5H20V12H18.9381C18.7559 13.4608 18.1799 14.7993 17.3196 15.9059L18.3634 16.9497L19.4241 15.889L20.8383 17.3032L17.3027 20.8388L15.8885 19.4246L16.9492 18.3639L15.9054 17.3201C14.7989 18.1801 13.4606 18.756 12 18.9381V20H13.5V22H8.5V20H10V18.9381C8.53941 18.756 7.2011 18.1801 6.09463 17.3201L5.05093 18.3638L6.11171 19.4245L4.69749 20.8388L1.16196 17.3032L2.57617 15.889L3.63672 16.9496L4.68036 15.9059C3.82008 14.7993 3.24406 13.4608 3.06189 12H2V13.5H0V8.5H2V10H3.06189C3.24406 8.53911 3.82013 7.20055 4.68046 6.09394L3.63684 5.05032L2.57617 6.11099L1.16196 4.69678L4.69749 1.16124L6.11171 2.57546L5.05105 3.63611L6.09477 4.67982C7.20121 3.81985 8.53947 3.24402 10 3.06189V2H8.5V0ZM11 5C7.68629 5 5 7.68629 5 11C5 14.3137 7.68629 17 11 17C14.3137 17 17 14.3137 17 11C17 7.68629 14.3137 5 11 5Z" fill="#A4ACA7"/>
</svg>
