<svg width="56" height="56" viewBox="0 0 56 56" fill="none" xmlns="http://www.w3.org/2000/svg">
<mask id="mask0_593_52882" style="mask-type:alpha" maskUnits="userSpaceOnUse" x="6" y="6" width="44" height="44">
<rect x="6" y="6" width="44" height="44" fill="#FE5720"/>
</mask>
<g mask="url(#mask0_593_52882)">
<path fill-rule="evenodd" clip-rule="evenodd" d="M20.0647 18.9132L17.6421 17.5135L8.56844 22.756V33.2428L17.6421 38.4854L26.7158 33.2428V22.0149C26.7158 21.5562 26.9604 21.1324 27.3575 20.9029L37.7154 14.9184C38.1129 14.6887 38.6028 14.6887 39.0004 14.9184L49.3582 20.9029C49.7554 21.1324 50 21.5562 50 22.0149V33.984C50 34.4427 49.7554 34.8665 49.3582 35.096L39.0004 41.0805C38.6028 41.3102 38.1129 41.3102 37.7154 41.0805L34.5666 39.2612C34.154 39.5157 33.6679 39.6625 33.1476 39.6625C31.6525 39.6625 30.4404 38.4504 30.4404 36.9553C30.4404 35.4602 31.6525 34.2482 33.1476 34.2482C34.6427 34.2482 35.8547 35.4602 35.8547 36.9553C35.8547 36.9831 35.8543 37.0108 35.8534 37.0384L38.3579 38.4854L47.4316 33.2428V22.756L38.3579 17.5135L29.2842 22.756V33.984C29.2842 34.4427 29.0396 34.8665 28.6425 35.096L18.2846 41.0805C17.8871 41.3102 17.3972 41.3102 16.9997 41.0805L6.64176 35.096C6.24462 34.8665 6 34.4427 6 33.984V22.0149C6 21.5562 6.24462 21.1324 6.64176 20.9029L16.9997 14.9184C17.3972 14.6887 17.8871 14.6887 18.2846 14.9184L21.3906 16.7129C21.7943 16.4737 22.2655 16.3364 22.7687 16.3364C24.2638 16.3364 25.4759 17.5484 25.4759 19.0435C25.4759 20.5386 24.2638 21.7506 22.7687 21.7506C21.2736 21.7506 20.0616 20.5386 20.0616 19.0435C20.0616 18.9998 20.0627 18.9564 20.0647 18.9132Z" fill="#FE5720"/>
</g>
</svg>
