<svg width="108" height="108" viewBox="0 0 108 108" fill="none" xmlns="http://www.w3.org/2000/svg">
<path fill-rule="evenodd" clip-rule="evenodd" d="M71.5 0.25C58.805 0.25 48.5 10.555 48.5 23.25C48.5 30.49 51.77 38.25 55.825 44.91C61.61 54.42 68.85 61.65 68.85 61.65C70.315 63.115 72.685 63.115 74.15 61.65C74.15 61.65 81.39 54.42 87.175 44.91C91.23 38.25 94.5 30.49 94.5 23.25C94.5 10.555 84.195 0.25 71.5 0.25ZM71.5 14.375C75.64 14.375 79 17.735 79 21.875C79 26.015 75.64 29.375 71.5 29.375C67.36 29.375 64 26.015 64 21.875C64 17.735 67.36 14.375 71.5 14.375Z" fill="#DC2807"/>
<path fill-rule="evenodd" clip-rule="evenodd" d="M35.25 31.1697L2.97 40.3947C1.36 40.8547 0.25 42.3247 0.25 43.9997V104C0.25 105.155 0.78 106.245 1.69 106.955C2.6 107.665 3.79 107.92 4.91 107.64L35.25 100.055V31.1697ZM44.615 31.6297L42.75 31.1247V100.145L67.75 106.875V66.9097C66.87 66.4897 66.045 65.9147 65.315 65.1897C65.22 65.0947 57.625 57.4897 51.55 47.5097C48.555 42.5897 46.005 37.1147 44.615 31.6297ZM98.385 31.6297C96.995 37.1147 94.445 42.5897 91.45 47.5097C85.375 57.4897 77.78 65.0947 77.685 65.1897C76.955 65.9147 76.13 66.4897 75.25 66.9097V106.875L104.975 98.8697C106.61 98.4297 107.75 96.9447 107.75 95.2497V33.9997C107.75 32.8347 107.205 31.7347 106.28 31.0247C105.355 30.3147 104.15 30.0747 103.025 30.3797L98.385 31.6297Z" fill="#FFD8CB"/>
</svg>
