<svg width="28" height="30" viewBox="0 0 28 30" fill="none" xmlns="http://www.w3.org/2000/svg">
<path d="M13.9422 8.66699C12.8453 8.66699 11.9203 9.41718 11.6584 10.4345L11.3261 11.7257L8.74359 11.061L9.07594 9.76979C9.63365 7.60292 11.5991 6.00033 13.9422 6.00033C16.7172 6.00033 18.9668 8.24993 18.9668 11.025C18.9668 12.5328 18.2489 13.5439 17.4314 14.3391C17.0842 14.6768 16.6884 15.0049 16.3168 15.313C16.2743 15.3482 16.2322 15.3832 16.1904 15.4179C15.7674 15.7693 15.35 16.1224 14.9372 16.53L13.9885 17.4669L12.1147 15.5696L13.0634 14.6327C13.5637 14.1386 14.057 13.7235 14.4863 13.3667C14.5266 13.3333 14.5661 13.3005 14.6048 13.2684C14.9942 12.9452 15.3053 12.687 15.572 12.4276C16.1146 11.8998 16.3002 11.5344 16.3002 11.025C16.3002 9.72269 15.2445 8.66699 13.9422 8.66699Z" fill="#FFD9CC"/>
<path d="M12.627 19.3337H15.307V22.0003H12.627V19.3337Z" fill="#FFD9CC"/>
<path fill-rule="evenodd" clip-rule="evenodd" d="M0.666992 0.666992H27.3337V24.667H19.0073L14.0003 29.1176L8.99339 24.667H0.666992V0.666992ZM3.33366 3.33366V22.0003H9.50033L10.3861 22.3371L14.0003 25.5497L17.6145 22.3371L18.5003 22.0003H24.667V3.33366H3.33366Z" fill="#FFD9CC"/>
</svg>
