<svg width="18" height="22" viewBox="0 0 18 22" fill="none" xmlns="http://www.w3.org/2000/svg">
<path fill-rule="evenodd" clip-rule="evenodd" d="M5 13C5 10.7909 6.79086 9 9 9C11.2091 9 13 10.7909 13 13C13 15.2091 11.2091 17 9 17C6.79086 17 5 15.2091 5 13ZM9 11C7.89543 11 7 11.8954 7 13C7 14.1046 7.89543 15 9 15C10.1046 15 11 14.1046 11 13C11 11.8954 10.1046 11 9 11Z" fill="#A4ACA7"/>
<path fill-rule="evenodd" clip-rule="evenodd" d="M0 0H12.4684L18 6.63795V22H0V0ZM2 2V20H16V7.36205L13 3.76205V6H4V2H2ZM6 2V4H11V2H6Z" fill="#A4ACA7"/>
</svg>
