<svg width="16" height="16" viewBox="0 0 16 16" fill="none" xmlns="http://www.w3.org/2000/svg">
<path fill-rule="evenodd" clip-rule="evenodd" d="M0.666992 6.66699C0.666992 3.35328 3.35328 0.666992 6.66699 0.666992C9.9807 0.666992 12.667 3.35328 12.667 6.66699C12.667 8.08367 12.176 9.38567 11.3549 10.4121L15.6098 14.667L14.667 15.6098L10.4121 11.3549C9.38567 12.176 8.08367 12.667 6.66699 12.667C3.35328 12.667 0.666992 9.9807 0.666992 6.66699ZM6.66699 2.00033C4.08966 2.00033 2.00033 4.08966 2.00033 6.66699C2.00033 9.24432 4.08966 11.3337 6.66699 11.3337C9.24432 11.3337 11.3337 9.24432 11.3337 6.66699C11.3337 4.08966 9.24432 2.00033 6.66699 2.00033Z" fill="#A4ACA7"/>
</svg>
