<svg width="22" height="22" viewBox="0 0 22 22" fill="none" xmlns="http://www.w3.org/2000/svg">
<path d="M12 0V3H10V0H12Z" fill="#A4ACA7"/>
<path d="M3.92871 2.51474L6.05003 4.63606L4.63582 6.05028L2.5145 3.92896L3.92871 2.51474Z" fill="#A4ACA7"/>
<path d="M19.4845 3.92896L17.3632 6.05028L15.949 4.63606L18.0703 2.51474L19.4845 3.92896Z" fill="#A4ACA7"/>
<path fill-rule="evenodd" clip-rule="evenodd" d="M5 11C5 7.68629 7.68629 5 11 5C14.3137 5 17 7.68629 17 11C17 14.3137 14.3137 17 11 17C7.68629 17 5 14.3137 5 11ZM11 7C8.79086 7 7 8.79086 7 11C7 13.2091 8.79086 15 11 15C13.2091 15 15 13.2091 15 11C15 8.79086 13.2091 7 11 7Z" fill="#A4ACA7"/>
<path d="M0 10H3V12H0V10Z" fill="#A4ACA7"/>
<path d="M19 10H22V12H19V10Z" fill="#A4ACA7"/>
<path d="M6.04996 17.364L3.92864 19.4853L2.51442 18.0711L4.63574 15.9498L6.04996 17.364Z" fill="#A4ACA7"/>
<path d="M17.3633 15.9498L19.4846 18.0711L18.0704 19.4853L15.9491 17.364L17.3633 15.9498Z" fill="#A4ACA7"/>
<path d="M12 19V22H10V19H12Z" fill="#A4ACA7"/>
</svg>
