<svg width="26" height="29" viewBox="0 0 26 29" fill="none" xmlns="http://www.w3.org/2000/svg">
<path d="M10.9997 21.6673C11.733 21.6673 12.3608 21.4062 12.883 20.884C13.4052 20.3618 13.6663 19.734 13.6663 19.0007C13.6663 18.2673 13.4052 17.6395 12.883 17.1173C12.3608 16.5951 11.733 16.334 10.9997 16.334C10.2663 16.334 9.63856 16.5951 9.11634 17.1173C8.59412 17.6395 8.33301 18.2673 8.33301 19.0007C8.33301 19.734 8.59412 20.3618 9.11634 20.884C9.63856 21.4062 10.2663 21.6673 10.9997 21.6673ZM2.99967 28.334C2.26634 28.334 1.63856 28.0729 1.11634 27.5507C0.594119 27.0284 0.333008 26.4007 0.333008 25.6673V12.334C0.333008 11.6007 0.594119 10.9729 1.11634 10.4507C1.63856 9.92843 2.26634 9.66732 2.99967 9.66732H12.333V7.00065C12.333 5.15621 12.983 3.58398 14.283 2.28398C15.583 0.983984 17.1552 0.333984 18.9997 0.333984C20.8441 0.333984 22.4163 0.983984 23.7163 2.28398C25.0163 3.58398 25.6663 5.15621 25.6663 7.00065H22.9997C22.9997 5.88954 22.6108 4.9451 21.833 4.16732C21.0552 3.38954 20.1108 3.00065 18.9997 3.00065C17.8886 3.00065 16.9441 3.38954 16.1663 4.16732C15.3886 4.9451 14.9997 5.88954 14.9997 7.00065V9.66732H18.9997C19.733 9.66732 20.3608 9.92843 20.883 10.4507C21.4052 10.9729 21.6663 11.6007 21.6663 12.334V25.6673C21.6663 26.4007 21.4052 27.0284 20.883 27.5507C20.3608 28.0729 19.733 28.334 18.9997 28.334H2.99967Z" fill="#F0A433"/>
</svg>
