<svg width="16" height="16" viewBox="0 0 16 16" fill="none" xmlns="http://www.w3.org/2000/svg">
<path fill-rule="evenodd" clip-rule="evenodd" d="M2.66699 4.00016C2.66699 2.5274 3.8609 1.3335 5.33366 1.3335C6.80642 1.3335 8.00033 2.5274 8.00033 4.00016C8.00033 5.47292 6.80642 6.66683 5.33366 6.66683C3.8609 6.66683 2.66699 5.47292 2.66699 4.00016ZM5.33366 2.66683C4.59728 2.66683 4.00033 3.26378 4.00033 4.00016C4.00033 4.73654 4.59728 5.3335 5.33366 5.3335C6.07004 5.3335 6.66699 4.73654 6.66699 4.00016C6.66699 3.26378 6.07004 2.66683 5.33366 2.66683Z" fill="#A4ACA7"/>
<path fill-rule="evenodd" clip-rule="evenodd" d="M9.33366 5.3335C9.33366 4.22893 10.2291 3.3335 11.3337 3.3335C12.4382 3.3335 13.3337 4.22893 13.3337 5.3335C13.3337 6.43807 12.4382 7.3335 11.3337 7.3335C10.2291 7.3335 9.33366 6.43807 9.33366 5.3335ZM11.3337 4.66683C10.9655 4.66683 10.667 4.96531 10.667 5.3335C10.667 5.70169 10.9655 6.00016 11.3337 6.00016C11.7018 6.00016 12.0003 5.70169 12.0003 5.3335C12.0003 4.96531 11.7018 4.66683 11.3337 4.66683Z" fill="#A4ACA7"/>
<path fill-rule="evenodd" clip-rule="evenodd" d="M0.666992 12.0002C0.666992 9.42283 2.75633 7.3335 5.33366 7.3335C6.718 7.3335 7.9611 7.93657 8.81508 8.89255C9.50235 8.33502 10.379 8.00016 11.3337 8.00016C13.5428 8.00016 15.3337 9.79102 15.3337 12.0002V14.6668H0.666992V12.0002ZM9.55658 10.0118C9.84123 10.6155 10.0003 11.2899 10.0003 12.0002V13.3335H14.0003V12.0002C14.0003 10.5274 12.8064 9.3335 11.3337 9.3335C10.6512 9.3335 10.0287 9.58938 9.55658 10.0118ZM8.66699 13.3335V12.0002C8.66699 11.3588 8.48649 10.7616 8.17384 10.2542C7.58593 9.30031 6.53349 8.66683 5.33366 8.66683C3.49271 8.66683 2.00033 10.1592 2.00033 12.0002V13.3335H8.66699Z" fill="#A4ACA7"/>
</svg>
