<svg width="24" height="17" viewBox="0 0 24 17" fill="none" xmlns="http://www.w3.org/2000/svg">
<path d="M11.9999 2C8.41365 2 5.14438 3.34716 2.66685 5.5646L1.92172 6.23152L0.587891 4.74125L1.33303 4.07433C4.16306 1.54138 7.90269 0 11.9999 0C16.0972 0 19.8368 1.54138 22.6669 4.07433L23.412 4.74125L22.0782 6.23152L21.333 5.5646C18.8555 3.34716 15.5862 2 11.9999 2Z" fill="#A4ACA7"/>
<path d="M12.0002 7C9.6683 7 7.54559 7.88551 5.94627 9.34029L5.20652 10.0132L3.86074 8.53369L4.60049 7.8608C6.55359 6.08421 9.15142 5 12.0002 5C14.8489 5 17.4467 6.08421 19.3998 7.8608L20.1396 8.53369L18.7938 10.0132L18.054 9.34029C16.4547 7.88551 14.332 7 12.0002 7Z" fill="#A4ACA7"/>
<path d="M12 12C10.9633 12 10.0208 12.3931 9.30955 13.04L8.5698 13.7129L7.22403 12.2334L7.96377 11.5605C9.02877 10.5918 10.4465 10 12 10C13.5536 10 14.9713 10.5918 16.0363 11.5605L16.7761 12.2334L15.4303 13.7129L14.6905 13.04C13.9793 12.3931 13.0368 12 12 12Z" fill="#A4ACA7"/>
<path d="M10.9999 15H13.0099V17H10.9999V15Z" fill="#A4ACA7"/>
</svg>
