<svg width="16" height="16" viewBox="0 0 16 16" fill="none" xmlns="http://www.w3.org/2000/svg">
<g clip-path="url(#clip0_7588_44958)">
<path fill-rule="evenodd" clip-rule="evenodd" d="M0.667969 8.0013C0.667969 3.95121 3.95121 0.667969 8.0013 0.667969C12.0514 0.667969 15.3346 3.95121 15.3346 8.0013C15.3346 12.0514 12.0514 15.3346 8.0013 15.3346C3.95121 15.3346 0.667969 12.0514 0.667969 8.0013ZM11.1185 5.50987C11.3899 5.75866 11.4082 6.18038 11.1594 6.45179L7.49274 10.4518C7.36647 10.5895 7.18818 10.668 7.00131 10.668C6.81443 10.668 6.63614 10.5895 6.50987 10.4518L4.8432 8.63361C4.59441 8.36219 4.61274 7.94048 4.88416 7.69169C5.15557 7.44289 5.57728 7.46123 5.82607 7.73264L7.00131 9.01471L10.1765 5.55082C10.4253 5.27941 10.847 5.26107 11.1185 5.50987Z" fill="#479F29"/>
</g>
<defs>
<clipPath id="clip0_7588_44958">
<rect width="16" height="16" fill="white"/>
</clipPath>
</defs>
</svg>
