<svg width="24" height="24" viewBox="0 0 24 24" fill="none" xmlns="http://www.w3.org/2000/svg">
<path d="M12 0.855469L15.3598 2.72202L14.3885 4.47034L12 3.14339L9.61149 4.47034L8.6402 2.72202L12 0.855469Z" fill="#A4ACA7"/>
<path d="M6.3598 6.27683L5.15293 6.94732L6.33941 7.53323L5.45385 9.32649L4 8.60854V9.99943H2V6.41102L5.38851 4.52852L6.3598 6.27683Z" fill="#A4ACA7"/>
<path d="M18.6115 4.52852L22 6.41102V9.99943H20V8.60854L18.5462 9.32649L17.6606 7.53323L18.8471 6.94732L17.6402 6.27683L18.6115 4.52852Z" fill="#A4ACA7"/>
<path d="M9.54615 9.11681L12 10.3286L14.4538 9.11681L15.3394 10.9101L13 12.0653V13.9994H11V12.0653L8.66059 10.9101L9.54615 9.11681Z" fill="#A4ACA7"/>
<path d="M4 13.9994V16.411L6.3598 17.722L5.38851 19.4703L2 17.5878V13.9994H4Z" fill="#A4ACA7"/>
<path d="M22 13.9994V17.5878L18.6115 19.4703L17.6402 17.722L20 16.411V13.9994H22Z" fill="#A4ACA7"/>
<path d="M13 17.9994V20.2999L14.3885 19.5285L15.3598 21.2768L12 23.1434L8.6402 21.2768L9.61149 19.5285L11 20.2999V17.9994H13Z" fill="#A4ACA7"/>
</svg>
