<svg width="32" height="32" viewBox="0 0 32 32" fill="none" xmlns="http://www.w3.org/2000/svg">
<path d="M15.9987 22.6654C16.732 22.6654 17.3598 22.4043 17.882 21.882C18.4043 21.3598 18.6654 20.732 18.6654 19.9987C18.6654 19.2654 18.4043 18.6376 17.882 18.1154C17.3598 17.5931 16.732 17.332 15.9987 17.332C15.2654 17.332 14.6376 17.5931 14.1154 18.1154C13.5931 18.6376 13.332 19.2654 13.332 19.9987C13.332 20.732 13.5931 21.3598 14.1154 21.882C14.6376 22.4043 15.2654 22.6654 15.9987 22.6654ZM7.9987 29.332C7.26536 29.332 6.63759 29.0709 6.11536 28.5487C5.59314 28.0265 5.33203 27.3987 5.33203 26.6654V13.332C5.33203 12.5987 5.59314 11.9709 6.11536 11.4487C6.63759 10.9265 7.26536 10.6654 7.9987 10.6654H17.332V7.9987C17.332 6.15425 17.982 4.58203 19.282 3.28203C20.582 1.98203 22.1543 1.33203 23.9987 1.33203C25.8431 1.33203 27.4154 1.98203 28.7154 3.28203C30.0154 4.58203 30.6654 6.15425 30.6654 7.9987H27.9987C27.9987 6.88759 27.6098 5.94314 26.832 5.16536C26.0543 4.38759 25.1098 3.9987 23.9987 3.9987C22.8876 3.9987 21.9431 4.38759 21.1654 5.16536C20.3876 5.94314 19.9987 6.88759 19.9987 7.9987V10.6654H23.9987C24.732 10.6654 25.3598 10.9265 25.882 11.4487C26.4043 11.9709 26.6654 12.5987 26.6654 13.332V26.6654C26.6654 27.3987 26.4043 28.0265 25.882 28.5487C25.3598 29.0709 24.732 29.332 23.9987 29.332H7.9987Z" fill="#F0A433"/>
</svg>
