<svg width="16" height="16" viewBox="0 0 16 16" fill="none" xmlns="http://www.w3.org/2000/svg">
<g clip-path="url(#clip0_7588_101332)">
<path fill-rule="evenodd" clip-rule="evenodd" d="M4.66797 7.9974C4.66797 6.15645 6.16035 4.66406 8.0013 4.66406C9.84225 4.66406 11.3346 6.15645 11.3346 7.9974C11.3346 9.83834 9.84225 11.3307 8.0013 11.3307C6.16035 11.3307 4.66797 9.83834 4.66797 7.9974ZM8.0013 5.9974C6.89673 5.9974 6.0013 6.89283 6.0013 7.9974C6.0013 9.10196 6.89673 9.9974 8.0013 9.9974C9.10587 9.9974 10.0013 9.10196 10.0013 7.9974C10.0013 6.89283 9.10587 5.9974 8.0013 5.9974Z" fill="white"/>
<path fill-rule="evenodd" clip-rule="evenodd" d="M8.66797 0.664062V2.03401C11.449 2.34145 13.6573 4.54965 13.9647 7.33073H15.3346V8.66406H13.9647C13.6573 11.4451 11.449 13.6533 8.66797 13.9608V15.3307H7.33463V13.9608C4.55356 13.6533 2.34535 11.4451 2.03792 8.66406H0.667969V7.33073H2.03792C2.34535 4.54965 4.55356 2.34145 7.33463 2.03401V0.664062H8.66797ZM8.0013 3.33073C5.42397 3.33073 3.33464 5.42007 3.33464 7.9974C3.33464 10.5747 5.42397 12.6641 8.0013 12.6641C10.5786 12.6641 12.668 10.5747 12.668 7.9974C12.668 5.42007 10.5786 3.33073 8.0013 3.33073Z" fill="white"/>
</g>
<defs>
<clipPath id="clip0_7588_101332">
<rect width="16" height="16" fill="white"/>
</clipPath>
</defs>
</svg>
