<svg width="16" height="16" viewBox="0 0 16 16" fill="none" xmlns="http://www.w3.org/2000/svg">
<g clip-path="url(#clip0_7588_44932)">
<path d="M4.66797 7.33463H11.3346V8.66797H4.66797V7.33463Z" fill="#6B7971"/>
<path fill-rule="evenodd" clip-rule="evenodd" d="M0.667969 8.0013C0.667969 3.95121 3.95121 0.667969 8.0013 0.667969C12.0514 0.667969 15.3346 3.95121 15.3346 8.0013C15.3346 12.0514 12.0514 15.3346 8.0013 15.3346C3.95121 15.3346 0.667969 12.0514 0.667969 8.0013ZM8.0013 2.0013C4.68759 2.0013 2.0013 4.68759 2.0013 8.0013C2.0013 11.315 4.68759 14.0013 8.0013 14.0013C11.315 14.0013 14.0013 11.315 14.0013 8.0013C14.0013 4.68759 11.315 2.0013 8.0013 2.0013Z" fill="#6B7971"/>
</g>
<defs>
<clipPath id="clip0_7588_44932">
<rect width="16" height="16" fill="white"/>
</clipPath>
</defs>
</svg>
