<svg width="16" height="16" viewBox="0 0 16 16" fill="none" xmlns="http://www.w3.org/2000/svg">
<g clip-path="url(#clip0_7588_101334)">
<path d="M8.0013 1.9974C4.68759 1.9974 2.0013 4.68369 2.0013 7.9974V8.66406H0.667969V7.9974C0.667969 3.94731 3.95121 0.664062 8.0013 0.664062C10.4823 0.664062 12.6746 1.89609 14.0013 3.78019V1.33073H15.3346V5.9974H10.668V4.66406H12.9911C11.9143 3.05536 10.0808 1.9974 8.0013 1.9974Z" fill="white"/>
<path d="M15.3346 7.33073V7.9974C15.3346 12.0475 12.0514 15.3307 8.00126 15.3307C5.52024 15.3307 3.32798 14.0987 2.0013 12.2147V14.6641H0.667969V9.9974H5.33464V11.3307H3.01147C4.0883 12.9394 5.92176 13.9974 8.00126 13.9974C11.315 13.9974 14.0013 11.3111 14.0013 7.9974V7.33073H15.3346Z" fill="white"/>
</g>
<defs>
<clipPath id="clip0_7588_101334">
<rect width="16" height="16" rx="2" fill="white"/>
</clipPath>
</defs>
</svg>
