<svg width="16" height="16" viewBox="0 0 16 16" fill="none" xmlns="http://www.w3.org/2000/svg">
<g clip-path="url(#clip0_7588_1964)">
<path fill-rule="evenodd" clip-rule="evenodd" d="M0.667969 6.66406C0.667969 3.35035 3.35426 0.664062 6.66797 0.664062C9.98168 0.664062 12.668 3.35035 12.668 6.66406C12.668 8.08074 12.177 9.38274 11.3559 10.4092L15.6108 14.6641L14.668 15.6069L10.4131 11.352C9.38665 12.1731 8.08464 12.6641 6.66797 12.6641C3.35426 12.6641 0.667969 9.97777 0.667969 6.66406ZM6.66797 1.9974C4.09064 1.9974 2.0013 4.08673 2.0013 6.66406C2.0013 9.24139 4.09064 11.3307 6.66797 11.3307C9.2453 11.3307 11.3346 9.24139 11.3346 6.66406C11.3346 4.08673 9.2453 1.9974 6.66797 1.9974Z" fill="#A4ACA7"/>
</g>
<defs>
<clipPath id="clip0_7588_1964">
<rect width="16" height="16" fill="white"/>
</clipPath>
</defs>
</svg>
