<svg width="20" height="20" viewBox="0 0 20 20" fill="none" xmlns="http://www.w3.org/2000/svg">
<path d="M14.512 7.44893L8.7513 13.7334L5.49057 10.1762L6.71916 9.05L8.7513 11.2669L13.2834 6.32273L14.512 7.44893Z" fill="#A4ACA7"/>
<path fill-rule="evenodd" clip-rule="evenodd" d="M10.0013 0.488281L12.0131 2.50013H18.3346V10.6676C18.3346 13.6316 16.5891 16.3175 13.8807 17.5212L10.0013 19.2454L6.12193 17.5212C3.41347 16.3175 1.66797 13.6316 1.66797 10.6676V2.50013H7.98946L10.0013 0.488281ZM10.0013 2.8453L8.67981 4.16679H3.33464V10.6676C3.33464 12.9729 4.69225 15.0619 6.79883 15.9982L10.0013 17.4215L13.2038 15.9982C15.3104 15.0619 16.668 12.9729 16.668 10.6676V4.16679H11.3228L10.0013 2.8453Z" fill="#A4ACA7"/>
</svg>
