<svg width="24" height="24" viewBox="0 0 24 24" fill="none" xmlns="http://www.w3.org/2000/svg">
<path d="M12.0001 12.0001C11.681 12.0001 11.4115 11.8904 11.1919 11.6709C10.9724 11.4512 10.8626 11.1818 10.8626 10.8626V2.93438C10.8626 2.61521 10.9724 2.34579 11.1919 2.12612C11.4115 1.90662 11.681 1.79688 12.0001 1.79688C12.3193 1.79688 12.5887 1.90662 12.8084 2.12612C13.0279 2.34579 13.1376 2.61521 13.1376 2.93438V10.8626C13.1376 11.1818 13.0279 11.4512 12.8084 11.6709C12.5887 11.8904 12.3193 12.0001 12.0001 12.0001ZM12.0001 21.2034C10.7223 21.2034 9.52554 20.9609 8.40988 20.4759C7.29438 19.9909 6.32246 19.3343 5.49412 18.5061C4.66596 17.6778 4.00937 16.7059 3.52437 15.5904C3.03937 14.4747 2.79688 13.278 2.79688 12.0001C2.79688 10.9875 2.95754 10.002 3.27887 9.04362C3.60021 8.08529 4.07162 7.20412 4.69313 6.40013C4.89629 6.13096 5.16146 5.99654 5.48862 5.99688C5.81579 5.99721 6.10371 6.11971 6.35238 6.36438C6.56354 6.57154 6.66379 6.82738 6.65313 7.13188C6.64246 7.43638 6.54579 7.72129 6.36312 7.98663C5.94112 8.57063 5.62037 9.20504 5.40087 9.88988C5.18154 10.5745 5.07187 11.278 5.07187 12.0001C5.07187 13.9301 5.74404 15.5674 7.08838 16.9119C8.43288 18.2562 10.0701 18.9284 12.0001 18.9284C13.9301 18.9284 15.5674 18.2562 16.9119 16.9119C18.2562 15.5674 18.9284 13.9301 18.9284 12.0001C18.9284 11.2653 18.8219 10.5514 18.6089 9.85838C18.3959 9.16521 18.0636 8.52663 17.6121 7.94263C17.4295 7.68996 17.3318 7.41554 17.3191 7.11938C17.3065 6.82321 17.4057 6.57154 17.6169 6.36438C17.8529 6.13238 18.1345 6.01521 18.4616 6.01288C18.7888 6.01054 19.056 6.13763 19.2631 6.39413C19.9011 7.19813 20.384 8.07613 20.7119 9.02813C21.0395 9.98013 21.2034 10.9708 21.2034 12.0001C21.2034 13.278 20.9609 14.4747 20.4759 15.5904C19.9909 16.7059 19.3343 17.6778 18.5061 18.5061C17.6778 19.3343 16.7059 19.9909 15.5904 20.4759C14.4747 20.9609 13.278 21.2034 12.0001 21.2034Z" fill="#A4ACA7"/>
</svg>
