<svg width="16" height="16" viewBox="0 0 16 16" fill="none" xmlns="http://www.w3.org/2000/svg">
<path fill-rule="evenodd" clip-rule="evenodd" d="M2.66797 3.9987C2.66797 2.52594 3.86188 1.33203 5.33464 1.33203C6.80739 1.33203 8.0013 2.52594 8.0013 3.9987C8.0013 5.47146 6.80739 6.66536 5.33464 6.66536C3.86188 6.66536 2.66797 5.47146 2.66797 3.9987ZM5.33464 2.66536C4.59826 2.66536 4.0013 3.26232 4.0013 3.9987C4.0013 4.73508 4.59826 5.33203 5.33464 5.33203C6.07101 5.33203 6.66797 4.73508 6.66797 3.9987C6.66797 3.26232 6.07101 2.66536 5.33464 2.66536Z" fill="#C1C7C4"/>
<path fill-rule="evenodd" clip-rule="evenodd" d="M9.33463 5.33203C9.33463 4.22746 10.2301 3.33203 11.3346 3.33203C12.4392 3.33203 13.3346 4.22746 13.3346 5.33203C13.3346 6.4366 12.4392 7.33203 11.3346 7.33203C10.2301 7.33203 9.33463 6.4366 9.33463 5.33203ZM11.3346 4.66536C10.9664 4.66536 10.668 4.96384 10.668 5.33203C10.668 5.70022 10.9664 5.9987 11.3346 5.9987C11.7028 5.9987 12.0013 5.70022 12.0013 5.33203C12.0013 4.96384 11.7028 4.66536 11.3346 4.66536Z" fill="#C1C7C4"/>
<path fill-rule="evenodd" clip-rule="evenodd" d="M0.667969 11.9987C0.667969 9.42137 2.75731 7.33203 5.33464 7.33203C6.71897 7.33203 7.96207 7.93511 8.81606 8.89109C9.50333 8.33355 10.38 7.9987 11.3346 7.9987C13.5438 7.9987 15.3346 9.78956 15.3346 11.9987V14.6654H0.667969V11.9987ZM9.55756 10.0104C9.84221 10.614 10.0013 11.2884 10.0013 11.9987V13.332H14.0013V11.9987C14.0013 10.5259 12.8074 9.33203 11.3346 9.33203C10.6521 9.33203 10.0297 9.58791 9.55756 10.0104ZM8.66797 13.332V11.9987C8.66797 11.3573 8.48747 10.7601 8.17481 10.2528C7.58691 9.29885 6.53447 8.66536 5.33464 8.66536C3.49369 8.66536 2.0013 10.1577 2.0013 11.9987V13.332H8.66797Z" fill="#C1C7C4"/>
</svg>
