<svg width="24" height="24" viewBox="0 0 24 24" fill="none" xmlns="http://www.w3.org/2000/svg">
<path d="M12.0019 6C8.4156 6 5.14633 7.34716 2.66881 9.5646L1.92367 10.2315L0.589844 8.74125L1.33498 8.07433C4.16502 5.54138 7.90464 4 12.0019 4C16.0991 4 19.8388 5.54138 22.6688 8.07433L23.4139 8.74125L22.0801 10.2315L21.335 9.5646C18.8575 7.34716 15.5882 6 12.0019 6Z" fill="#A4ACA7"/>
<path d="M12.0021 11C9.67025 11 7.54754 11.8855 5.94822 13.3403L5.20848 14.0132L3.8627 12.5337L4.60244 11.8608C6.55555 10.0842 9.15337 9 12.0021 9C14.8508 9 17.4487 10.0842 19.4018 11.8608L20.1415 12.5337L18.7957 14.0132L18.056 13.3403C16.4567 11.8855 14.334 11 12.0021 11Z" fill="#A4ACA7"/>
<path d="M12.002 16C10.9653 16 10.0227 16.3931 9.3115 17.04L8.57176 17.7129L7.22598 16.2334L7.96572 15.5605C9.03072 14.5918 10.4484 14 12.002 14C13.5556 14 14.9733 14.5918 16.0383 15.5605L16.778 16.2334L15.4322 17.7129L14.6925 17.04C13.9813 16.3931 13.0387 16 12.002 16Z" fill="#A4ACA7"/>
<path d="M11.0019 19H13.0119V21H11.0019V19Z" fill="#A4ACA7"/>
</svg>
