<svg width="20" height="20" viewBox="0 0 20 20" fill="none" xmlns="http://www.w3.org/2000/svg">
<path d="M14.5101 7.44503L8.74935 13.7295L5.48862 10.1723L6.71721 9.04609L8.74935 11.263L13.2815 6.31882L14.5101 7.44503Z" fill="#A4ACA7"/>
<path fill-rule="evenodd" clip-rule="evenodd" d="M9.99935 0.484375L12.0112 2.49622H18.3327V10.6637C18.3327 13.6276 16.5872 16.3136 13.8787 17.5173L9.99935 19.2415L6.11998 17.5173C3.41152 16.3136 1.66602 13.6276 1.66602 10.6637V2.49622H7.9875L9.99935 0.484375ZM9.99935 2.8414L8.67786 4.16289H3.33268V10.6637C3.33268 12.969 4.69029 15.058 6.79688 15.9943L9.99935 17.4176L13.2018 15.9943C15.3084 15.058 16.666 12.969 16.666 10.6637V4.16289H11.3208L9.99935 2.8414Z" fill="#A4ACA7"/>
</svg>
