<svg width="20" height="20" viewBox="0 0 20 20" fill="none" xmlns="http://www.w3.org/2000/svg">
<g clip-path="url(#clip0_7156_70786)">
<path d="M7.50065 6.32214L10.0007 8.82214L12.5007 6.32214L13.6792 7.50065L11.1792 10.0007L13.6792 12.5007L12.5007 13.6792L10.0007 11.1792L7.50065 13.6792L6.32214 12.5007L8.82214 10.0007L6.32214 7.50065L7.50065 6.32214Z" fill="#A4ACA7"/>
<path fill-rule="evenodd" clip-rule="evenodd" d="M0.833984 10.0007C0.833984 4.93804 4.93804 0.833984 10.0007 0.833984C15.0633 0.833984 19.1673 4.93804 19.1673 10.0007C19.1673 15.0633 15.0633 19.1673 10.0007 19.1673C4.93804 19.1673 0.833984 15.0633 0.833984 10.0007ZM10.0007 2.50065C5.85851 2.50065 2.50065 5.85851 2.50065 10.0007C2.50065 14.1428 5.85851 17.5006 10.0007 17.5006C14.1428 17.5006 17.5006 14.1428 17.5006 10.0007C17.5006 5.85851 14.1428 2.50065 10.0007 2.50065Z" fill="#A4ACA7"/>
</g>
<defs>
<clipPath id="clip0_7156_70786">
<rect width="20" height="20" fill="white"/>
</clipPath>
</defs>
</svg>
