<svg width="20" height="20" viewBox="0 0 20 20" fill="none" xmlns="http://www.w3.org/2000/svg">
<path d="M9.99945 10.0027C9.73348 10.0027 9.50897 9.91125 9.32591 9.72833C9.14299 9.54528 9.05154 9.32076 9.05154 9.05479V2.44792C9.05154 2.18194 9.14299 1.95743 9.32591 1.77437C9.50897 1.59146 9.73348 1.5 9.99945 1.5C10.2654 1.5 10.4899 1.59146 10.673 1.77437C10.8559 1.95743 10.9474 2.18194 10.9474 2.44792V9.05479C10.9474 9.32076 10.8559 9.54528 10.673 9.72833C10.4899 9.91125 10.2654 10.0027 9.99945 10.0027ZM9.99945 17.6721C8.93459 17.6721 7.9373 17.47 7.00758 17.0658C6.078 16.6617 5.26806 16.1145 4.57779 15.4244C3.88765 14.7341 3.34049 13.9242 2.93633 12.9946C2.53216 12.0649 2.33008 11.0676 2.33008 10.0027C2.33008 9.15882 2.46397 8.33757 2.73174 7.53896C2.99952 6.74035 3.39237 6.00604 3.91029 5.33604C4.07959 5.11174 4.30056 4.99972 4.5732 5C4.84584 5.00028 5.08577 5.10236 5.29299 5.30625C5.46897 5.47889 5.55251 5.69208 5.54362 5.94583C5.53473 6.19958 5.45418 6.43701 5.30195 6.65813C4.95029 7.14479 4.68299 7.67347 4.50008 8.24417C4.3173 8.81472 4.22591 9.4009 4.22591 10.0027C4.22591 11.611 4.78605 12.9754 5.90633 14.0958C7.02674 15.2161 8.39112 15.7762 9.99945 15.7762C11.6078 15.7762 12.9722 15.2161 14.0926 14.0958C15.2129 12.9754 15.773 11.611 15.773 10.0027C15.773 9.39035 15.6842 8.79542 15.5067 8.21792C15.3292 7.64028 15.0524 7.10813 14.6761 6.62146C14.5239 6.4109 14.4425 6.18222 14.432 5.93542C14.4214 5.68861 14.5041 5.47889 14.6801 5.30625C14.8767 5.11292 15.1114 5.01528 15.384 5.01333C15.6567 5.01139 15.8793 5.11729 16.052 5.33104C16.5836 6.00104 16.986 6.73271 17.2592 7.52604C17.5323 8.31938 17.6688 9.14493 17.6688 10.0027C17.6688 11.0676 17.4667 12.0649 17.0626 12.9946C16.6584 13.9242 16.1113 14.7341 15.4211 15.4244C14.7308 16.1145 13.9209 16.6617 12.9913 17.0658C12.0616 17.47 11.0643 17.6721 9.99945 17.6721Z" fill="#6B7971"/>
</svg>
