<svg width="20" height="20" viewBox="0 0 20 20" fill="none" xmlns="http://www.w3.org/2000/svg">
<g clip-path="url(#clip0_7442_110505)">
<path d="M7.08398 7.91927H10.4173V11.2526H7.08398V7.91927Z" fill="#6B7971"/>
<path d="M10.834 12.5026V10.8359H12.509V12.5026H10.834Z" fill="#6B7971"/>
<path fill-rule="evenodd" clip-rule="evenodd" d="M7.91732 0.835938H12.084V2.5026H10.834V3.38752C12.0511 3.53929 13.1663 4.01914 14.0883 4.73579L14.9582 3.86593L14.0744 2.98214L15.2529 1.80363L18.1992 4.7499L17.0207 5.92841L16.1367 5.04444L15.2669 5.91422C15.9839 6.83639 16.4639 7.95186 16.6157 9.16927H17.5006V7.91927H19.1673V12.0859H17.5006V10.8359H16.6157C16.4639 12.0533 15.9839 13.1687 15.267 14.0909L16.1368 14.9607L17.0207 14.0768L18.1992 15.2553L15.2529 18.2016L14.0744 17.0231L14.9583 16.1392L14.0885 15.2693C13.1664 15.986 12.0511 16.4659 10.834 16.6177V17.5026H12.084V19.1693H7.91732V17.5026H9.16732V16.6177C7.95016 16.4659 6.8349 15.986 5.91284 15.2693L5.04309 16.1391L5.92707 17.0231L4.74856 18.2016L1.80228 15.2553L2.98079 14.0768L3.86458 14.9606L4.73428 14.0909C4.01739 13.1687 3.53736 12.0533 3.38556 10.8359H2.50065V12.0859H0.833984V7.91927H2.50065V9.16927H3.38556C3.53737 7.95186 4.01743 6.83639 4.73437 5.91422L3.86468 5.04454L2.98079 5.92843L1.80228 4.74992L4.74856 1.80364L5.92707 2.98215L5.0432 3.86603L5.91296 4.73579C6.83499 4.01914 7.95021 3.53929 9.16732 3.38752V2.5026H7.91732V0.835938ZM10.0007 5.0026C7.23923 5.0026 5.00065 7.24118 5.00065 10.0026C5.00065 12.764 7.23923 15.0026 10.0007 15.0026C12.7621 15.0026 15.0006 12.764 15.0006 10.0026C15.0006 7.24118 12.7621 5.0026 10.0007 5.0026Z" fill="#6B7971"/>
</g>
<defs>
<clipPath id="clip0_7442_110505">
<rect width="20" height="20" fill="white"/>
</clipPath>
</defs>
</svg>
