<svg width="20" height="20" viewBox="0 0 20 20" fill="none" xmlns="http://www.w3.org/2000/svg">
<path fill-rule="evenodd" clip-rule="evenodd" d="M6.66667 8.33203C6.66667 6.49108 8.15905 4.9987 10 4.9987C11.8409 4.9987 13.3333 6.49108 13.3333 8.33203C13.3333 10.173 11.8409 11.6654 10 11.6654C8.15905 11.6654 6.66667 10.173 6.66667 8.33203ZM10 6.66536C9.07953 6.66536 8.33333 7.41156 8.33333 8.33203C8.33333 9.25251 9.07953 9.9987 10 9.9987C10.9205 9.9987 11.6667 9.25251 11.6667 8.33203C11.6667 7.41156 10.9205 6.66536 10 6.66536Z" fill="#FE480B"/>
<path fill-rule="evenodd" clip-rule="evenodd" d="M2.5 8.33203C2.5 4.1899 5.85786 0.832031 10 0.832031C14.1421 0.832031 17.5 4.1899 17.5 8.33203C17.5 10.4372 16.5443 12.2822 15.2436 13.9712C14.1566 15.3826 12.7654 16.7617 11.3757 18.1394C11.1128 18.4 10.85 18.6606 10.5893 18.9213L10 19.5105L9.41074 18.9213C9.15003 18.6606 8.88719 18.4 8.62431 18.1394C7.23456 16.7617 5.84337 15.3826 4.75643 13.9712C3.45569 12.2822 2.5 10.4372 2.5 8.33203ZM10 2.4987C6.77834 2.4987 4.16667 5.11037 4.16667 8.33203C4.16667 9.90878 4.87764 11.3971 6.0769 12.9543C7.08951 14.2691 8.38561 15.5547 9.7769 16.9348C9.851 17.0083 9.92538 17.0821 10 17.1561C10.0746 17.0821 10.149 17.0083 10.2231 16.9348C11.6144 15.5547 12.9105 14.2691 13.9231 12.9543C15.1224 11.3971 15.8333 9.90878 15.8333 8.33203C15.8333 5.11037 13.2217 2.4987 10 2.4987Z" fill="#FE480B"/>
</svg>
