<svg width="32" height="32" viewBox="0 0 32 32" fill="none" xmlns="http://www.w3.org/2000/svg">
<path fill-rule="evenodd" clip-rule="evenodd" d="M25.334 0.78125L31.2196 6.66687L25.611 12.2755C25.6107 12.2758 25.6113 12.2752 25.611 12.2755C25.6107 12.2758 25.6096 12.2769 25.6093 12.2772L7.2196 30.6669H1.33399L1.33398 24.7813L19.7238 6.39139C19.7236 6.39162 19.7241 6.39117 19.7238 6.39139C19.7241 6.39117 19.725 6.39028 19.7252 6.39006L25.334 0.78125ZM20.6673 9.21915L4.00065 25.8858L4.00065 28.0002H6.11503L22.7817 11.3335L20.6673 9.21915ZM24.6673 9.44792L22.5529 7.33354L25.334 4.55249L27.4484 6.66687L24.6673 9.44792Z" fill="#FE480B"/>
</svg>
