<svg width="16" height="16" viewBox="0 0 16 16" fill="none" xmlns="http://www.w3.org/2000/svg">
<path d="M5.33268 5.3335V3.3335H6.66602V5.3335H5.33268ZM5.33268 11.3335V8.00016H6.66602V11.3335H5.33268ZM3.99935 14.6668C3.63268 14.6668 3.31879 14.5363 3.05768 14.2752C2.79657 14.0141 2.66602 13.7002 2.66602 13.3335V2.66683C2.66602 2.30016 2.79657 1.98627 3.05768 1.72516C3.31879 1.46405 3.63268 1.3335 3.99935 1.3335H11.9993C12.366 1.3335 12.6799 1.46405 12.941 1.72516C13.2021 1.98627 13.3327 2.30016 13.3327 2.66683V13.3335C13.3327 13.7002 13.2021 14.0141 12.941 14.2752C12.6799 14.5363 12.366 14.6668 11.9993 14.6668H3.99935ZM3.99935 13.3335H11.9993V7.3335H3.99935V13.3335ZM3.99935 6.00016H11.9993V2.66683H3.99935V6.00016Z" fill="#A4ACA7"/>
</svg>
