<svg width="140" height="30" viewBox="0 0 140 30" fill="none" xmlns="http://www.w3.org/2000/svg">
<path d="M11.4191 22.3248C9.5218 22.3248 8 20.7863 8 18.8681L8 10.4567C8 8.53854 9.5218 7 11.4191 7H24.72V9.13797H11.4191C10.7076 9.13797 10.1345 9.7374 10.1345 10.4567V18.8681C10.1345 19.5874 10.7076 20.1669 11.4191 20.1669H21.7753C22.4867 20.1669 23.0599 19.5874 23.0599 18.8681V15.2852H14.5813V13.1272H25.1746V18.8681C25.1746 20.7863 23.6528 22.3248 21.7753 22.3248H11.4191Z" fill="#FE5720"/>
<path d="M27.5513 22.2509V13.8821C27.5513 12.2437 28.8755 10.905 30.4961 10.905H38.1446V13.0629H30.4961C30.0416 13.0629 29.6858 13.4226 29.6858 13.8821V22.2509H27.5513Z" fill="#FE5720"/>
<path d="M43.273 22.2509C41.6524 22.2509 40.3282 20.9122 40.3282 19.2738V10.905H42.4627V19.2738C42.4627 19.7333 42.8184 20.093 43.273 20.093H53.6291C54.0837 20.093 54.4395 19.7333 54.4395 19.2738V10.905H56.5739V19.2738C56.5739 20.9122 55.2498 22.2509 53.6291 22.2509H43.273Z" fill="#FE5720"/>
<path d="M58.9531 22.2549V7H61.0876V20.097H72.2541C72.7086 20.097 73.0644 19.7373 73.0644 19.2777V13.8456C73.0644 13.3861 72.7086 13.0264 72.2541 13.0264H63.212V10.8685H72.2541C73.8747 10.8685 75.1988 12.2072 75.1988 13.8456V19.2777C75.1988 20.9162 73.8747 22.2549 72.2541 22.2549H58.9531Z" fill="#FE5720"/>
<path d="M77.578 22.2549V7H91.3533C93.2308 7 94.7526 8.53854 94.7526 10.4567V11.8386C94.7526 13.7368 93.2308 15.2954 91.3533 15.2954H81.8385V13.1374H91.3533C92.0648 13.1374 92.6379 12.558 92.6379 11.8386V10.4567C92.6379 9.7374 92.0648 9.13797 91.3533 9.13797H79.7125V22.2549H77.578Z" fill="#FE5720"/>
<path d="M100.074 22.2255C98.4535 22.2255 97.1294 20.8868 97.1294 19.2484V17.3734C97.1294 15.7349 98.4535 14.3962 100.074 14.3962H109.129V16.5342H100.074C99.6196 16.5342 99.2638 16.9138 99.2638 17.3734V19.2484C99.2638 19.7079 99.6196 20.0676 100.074 20.0676H111.241V13.8567C111.241 13.3972 110.885 13.0375 110.43 13.0375H97.6037V10.8796H110.43C112.051 10.8796 113.375 12.2183 113.375 13.8567V22.2255H100.074Z" fill="#FE5720"/>
<path d="M118.699 22.2255C117.078 22.2255 115.754 20.8868 115.754 19.2484V13.8567C115.754 12.2183 117.078 10.8796 118.699 10.8796H132V13.0375H118.699C118.245 13.0375 117.889 13.3972 117.889 13.8567V19.2484C117.889 19.7079 118.245 20.0676 118.699 20.0676H132V22.2255H118.699Z" fill="#FE5720"/>
</svg>
