<svg width="16" height="16" viewBox="0 0 16 16" fill="none" xmlns="http://www.w3.org/2000/svg">
<g clip-path="url(#clip0_7752_71265)">
<path fill-rule="evenodd" clip-rule="evenodd" d="M0.667969 6.66797C0.667969 3.35426 3.35426 0.667969 6.66797 0.667969C9.98168 0.667969 12.668 3.35426 12.668 6.66797C12.668 8.08464 12.177 9.38665 11.3559 10.4131L15.6108 14.668L14.668 15.6108L10.4131 11.3559C9.38665 12.177 8.08464 12.668 6.66797 12.668C3.35426 12.668 0.667969 9.98168 0.667969 6.66797ZM6.66797 2.0013C4.09064 2.0013 2.0013 4.09064 2.0013 6.66797C2.0013 9.2453 4.09064 11.3346 6.66797 11.3346C9.2453 11.3346 11.3346 9.2453 11.3346 6.66797C11.3346 4.09064 9.2453 2.0013 6.66797 2.0013Z" fill="#A4ACA7"/>
</g>
<defs>
<clipPath id="clip0_7752_71265">
<rect width="16" height="16" fill="white"/>
</clipPath>
</defs>
</svg>
