<svg width="16" height="16" viewBox="0 0 16 16" fill="none" xmlns="http://www.w3.org/2000/svg">
<g clip-path="url(#clip0_7442_117814)">
<path d="M4.66602 7.33463H11.3327V8.66797H4.66602V7.33463Z" fill="#6B7971"/>
<path fill-rule="evenodd" clip-rule="evenodd" d="M0.666016 8.0013C0.666016 3.95121 3.94926 0.667969 7.99935 0.667969C12.0494 0.667969 15.3327 3.95121 15.3327 8.0013C15.3327 12.0514 12.0494 15.3346 7.99935 15.3346C3.94926 15.3346 0.666016 12.0514 0.666016 8.0013ZM7.99935 2.0013C4.68564 2.0013 1.99935 4.68759 1.99935 8.0013C1.99935 11.315 4.68564 14.0013 7.99935 14.0013C11.3131 14.0013 13.9993 11.315 13.9993 8.0013C13.9993 4.68759 11.3131 2.0013 7.99935 2.0013Z" fill="#6B7971"/>
</g>
<defs>
<clipPath id="clip0_7442_117814">
<rect width="16" height="16" fill="white"/>
</clipPath>
</defs>
</svg>
