<svg width="32" height="32" viewBox="0 0 32 32" fill="none" xmlns="http://www.w3.org/2000/svg">
<path d="M13.9473 18.64L10.794 15.4866C10.5251 15.2178 10.1829 15.0833 9.76732 15.0833C9.35176 15.0833 9.00954 15.2178 8.74065 15.4866C8.47176 15.7555 8.33732 16.0978 8.33732 16.5133C8.33732 16.9289 8.47176 17.2711 8.74065 17.54L12.9207 21.72C13.214 22.0133 13.5562 22.16 13.9473 22.16C14.3384 22.16 14.6807 22.0133 14.974 21.72L23.2606 13.4333C23.5295 13.1644 23.664 12.8222 23.664 12.4066C23.664 11.9911 23.5295 11.6489 23.2606 11.38C22.9918 11.1111 22.6495 10.9766 22.234 10.9766C21.8184 10.9766 21.4762 11.1111 21.2073 11.38L13.9473 18.64ZM16.0007 30.6666C13.9718 30.6666 12.0651 30.2816 10.2807 29.5116C8.49621 28.7416 6.94398 27.6966 5.62398 26.3766C4.30398 25.0566 3.25898 23.5044 2.48898 21.72C1.71898 19.9355 1.33398 18.0289 1.33398 16C1.33398 13.9711 1.71898 12.0644 2.48898 10.28C3.25898 8.49553 4.30398 6.94331 5.62398 5.62331C6.94398 4.30331 8.49621 3.25831 10.2807 2.48831C12.0651 1.71831 13.9718 1.33331 16.0007 1.33331C18.0295 1.33331 19.9362 1.71831 21.7206 2.48831C23.5051 3.25831 25.0573 4.30331 26.3773 5.62331C27.6973 6.94331 28.7423 8.49553 29.5123 10.28C30.2823 12.0644 30.6673 13.9711 30.6673 16C30.6673 18.0289 30.2823 19.9355 29.5123 21.72C28.7423 23.5044 27.6973 25.0566 26.3773 26.3766C25.0573 27.6966 23.5051 28.7416 21.7206 29.5116C19.9362 30.2816 18.0295 30.6666 16.0007 30.6666ZM16.0007 27.7333C19.2762 27.7333 22.0506 26.5966 24.324 24.3233C26.5973 22.05 27.734 19.2755 27.734 16C27.734 12.7244 26.5973 9.94998 24.324 7.67665C22.0506 5.40331 19.2762 4.26665 16.0007 4.26665C12.7251 4.26665 9.95065 5.40331 7.67732 7.67665C5.40398 9.94998 4.26732 12.7244 4.26732 16C4.26732 19.2755 5.40398 22.05 7.67732 24.3233C9.95065 26.5966 12.7251 27.7333 16.0007 27.7333Z" fill="#479F29"/>
</svg>
