<svg width="20" height="20" viewBox="0 0 20 20" fill="none" xmlns="http://www.w3.org/2000/svg">
<g clip-path="url(#clip0_7588_20259)">
<path d="M10.0007 2.5026C5.85851 2.5026 2.50065 5.86047 2.50065 10.0026V10.8359H0.833984V10.0026C0.833984 4.93999 4.93804 0.835938 10.0007 0.835938C13.102 0.835938 15.8423 2.37597 17.5006 4.73109V1.66927H19.1673V7.5026H13.334V5.83594H16.2379C14.8919 3.82506 12.6 2.5026 10.0007 2.5026Z" fill="#A4ACA7"/>
<path d="M19.1673 9.16927V10.0026C19.1673 15.0652 15.0632 19.1693 10.0006 19.1693C6.89932 19.1693 4.159 17.6293 2.50065 15.2742V18.3359H0.833984V12.5026H6.66732V14.1693H3.76336C5.1094 16.1801 7.40123 17.5026 10.0006 17.5026C14.1427 17.5026 17.5006 14.1447 17.5006 10.0026V9.16927H19.1673Z" fill="#A4ACA7"/>
</g>
<defs>
<clipPath id="clip0_7588_20259">
<rect width="20" height="20" rx="2" fill="white"/>
</clipPath>
</defs>
</svg>
