<svg width="20" height="20" viewBox="0 0 20 20" fill="none" xmlns="http://www.w3.org/2000/svg">
<g clip-path="url(#clip0_7588_20253)">
<path d="M7.50065 6.32409L10.0007 8.82409L12.5007 6.32409L13.6792 7.5026L11.1792 10.0026L13.6792 12.5026L12.5007 13.6811L10.0007 11.1811L7.50065 13.6811L6.32214 12.5026L8.82214 10.0026L6.32214 7.5026L7.50065 6.32409Z" fill="#A4ACA7"/>
<path fill-rule="evenodd" clip-rule="evenodd" d="M0.833984 10.0026C0.833984 4.93999 4.93804 0.835938 10.0007 0.835938C15.0633 0.835938 19.1673 4.93999 19.1673 10.0026C19.1673 15.0652 15.0633 19.1693 10.0007 19.1693C4.93804 19.1693 0.833984 15.0652 0.833984 10.0026ZM10.0007 2.5026C5.85851 2.5026 2.50065 5.86047 2.50065 10.0026C2.50065 14.1447 5.85851 17.5026 10.0007 17.5026C14.1428 17.5026 17.5006 14.1447 17.5006 10.0026C17.5006 5.86047 14.1428 2.5026 10.0007 2.5026Z" fill="#A4ACA7"/>
</g>
<defs>
<clipPath id="clip0_7588_20253">
<rect width="20" height="20" fill="white"/>
</clipPath>
</defs>
</svg>
