<svg width="16" height="16" viewBox="0 0 16 16" fill="none" xmlns="http://www.w3.org/2000/svg">
<path d="M5.33464 5.33203V3.33203H6.66797V5.33203H5.33464ZM5.33464 11.332V7.9987H6.66797V11.332H5.33464ZM4.0013 14.6654C3.63464 14.6654 3.32075 14.5348 3.05964 14.2737C2.79852 14.0126 2.66797 13.6987 2.66797 13.332V2.66536C2.66797 2.2987 2.79852 1.98481 3.05964 1.7237C3.32075 1.46259 3.63464 1.33203 4.0013 1.33203H12.0013C12.368 1.33203 12.6819 1.46259 12.943 1.7237C13.2041 1.98481 13.3346 2.2987 13.3346 2.66536V13.332C13.3346 13.6987 13.2041 14.0126 12.943 14.2737C12.6819 14.5348 12.368 14.6654 12.0013 14.6654H4.0013ZM4.0013 13.332H12.0013V7.33203H4.0013V13.332ZM4.0013 5.9987H12.0013V2.66536H4.0013V5.9987Z" fill="#FE480B"/>
</svg>
